<?xml version="1.0" encoding="UTF-8" standalone="no"?>
<!-- Created with Inkscape (http://www.inkscape.org/) -->

<svg
   width="6.1029673mm"
   height="49.817005mm"
   viewBox="0 0 6.1029673 49.817005"
   version="1.1"
   id="svg5"
   xmlns="http://www.w3.org/2000/svg"
   xmlns:svg="http://www.w3.org/2000/svg">
  <defs
     id="defs2">
    <pattern
       patternUnits="userSpaceOnUse"
       width="2"
       height="1"
       patternTransform="translate(0,0) scale(10,10)"
       id="Strips1_1">
      <rect
         style="fill:black;stroke:none"
         x="0"
         y="-0.5"
         width="1"
         height="2"
         id="rect59171" />
    </pattern>
    <linearGradient
       id="linearGradient63235">
      <stop
         style="stop-color:#000000;stop-opacity:1;"
         offset="0"
         id="stop63233" />
    </linearGradient>
    <linearGradient
       id="linearGradient60153">
      <stop
         style="stop-color:#000000;stop-opacity:1;"
         offset="0"
         id="stop60151" />
    </linearGradient>
    <rect
       x="294.93967"
       y="699.58734"
       width="56.046486"
       height="225.77591"
       id="rect22070" />
  </defs>
  <g
     id="layer1"
     transform="translate(-70.858145,-124.93939)">
    <g
       aria-label="H
E
L
L
O"
       id="text3224"
       style="font-size:10.5833px;mix-blend-mode:overlay;fill:#000000;fill-opacity:1;stroke:url(#Strips1_1);stroke-width:0.365;stroke-linejoin:bevel;stroke-miterlimit:4;stroke-dasharray:none;stroke-opacity:1">
      <path
         d="m 75.452165,131.67281 q 0.05168,-2.06705 0.05168,-3.37446 H 71.89167 q 0,1.55028 0.05684,3.37446 h -0.542601 q 0.08785,-2.2996 0.08785,-3.545 0,-1.44176 -0.08785,-3.18842 h 0.542601 q -0.05684,1.22989 -0.05684,3.02823 h 3.612171 q 0,-1.51412 -0.06201,-3.02823 h 0.537433 q -0.08268,1.6433 -0.08268,3.18842 0,1.78284 0.08268,3.545 z"
         style="-inkscape-font-specification:Candara;fill:#000000;fill-opacity:1;stroke:url(#Strips1_1);stroke-width:0.365;stroke-linejoin:bevel;stroke-miterlimit:4;stroke-dasharray:none;stroke-opacity:1"
         id="path50268" />
      <path
         d="m 71.405913,142.39073 0.03617,-1.08003 q 0.06201,-1.56062 0.06201,-2.46496 0,-0.94051 -0.04651,-2.03087 -0.04651,-1.09037 -0.05168,-1.15755 h 3.663848 l -0.02067,0.42374 q -1.142045,-0.0413 -3.17809,-0.0413 0.02067,1.14721 0.02067,2.62516 1.622635,0 2.542472,-0.062 v 0.46509 q -1.229895,-0.0517 -2.542472,-0.0517 v 1.14205 q 0,1.11104 0.02584,1.86035 1.906855,0 3.477813,-0.0827 l -0.02067,0.45475 z"
         style="-inkscape-font-specification:Candara;fill:#000000;fill-opacity:1;stroke:url(#Strips1_1);stroke-width:0.365;stroke-linejoin:bevel;stroke-miterlimit:4;stroke-dasharray:none;stroke-opacity:1"
         id="path50270" />
      <path
         d="m 71.860664,151.03645 0.0052,1.04902 q 0,0.44959 -0.0052,0.65112 1.901687,0 3.410634,-0.0517 l -0.02067,0.42374 h -3.844715 q 0.04134,-1.55028 0.04134,-3.54499 0,-0.93534 -0.0052,-1.73115 -0.0052,-0.80099 -0.03617,-1.45727 h 0.532266 q -0.08785,1.16271 -0.08785,3.18842 0,0.57361 0.01033,1.47278 z"
         style="-inkscape-font-specification:Candara;fill:#000000;fill-opacity:1;stroke:url(#Strips1_1);stroke-width:0.365;stroke-linejoin:bevel;stroke-miterlimit:4;stroke-dasharray:none;stroke-opacity:1"
         id="path50272" />
      <path
         d="m 71.860664,161.75437 0.0052,1.04903 q 0,0.44959 -0.0052,0.65112 1.901687,0 3.410634,-0.0517 l -0.02067,0.42374 h -3.844715 q 0.04134,-1.55029 0.04134,-3.54499 0,-0.93534 -0.0052,-1.73115 -0.0052,-0.80099 -0.03617,-1.45727 h 0.532266 q -0.08785,1.16271 -0.08785,3.18842 0,0.57361 0.01033,1.47277 z"
         style="-inkscape-font-specification:Candara;fill:#000000;fill-opacity:1;stroke:url(#Strips1_1);stroke-width:0.365;stroke-linejoin:bevel;stroke-miterlimit:4;stroke-dasharray:none;stroke-opacity:1"
         id="path50274" />
      <path
         d="m 73.839865,174.75639 q -1.162716,0 -2.072218,-0.89916 -0.909502,-0.89917 -0.909502,-2.58382 0,-1.6123 0.930173,-2.59414 0.930172,-0.98185 2.180738,-0.98185 1.21956,0 2.103224,0.925 0.888832,0.91984 0.888832,2.47013 0,1.69498 -0.930173,2.682 -0.925005,0.98184 -2.191074,0.98184 z m -0.02067,-6.70757 q -0.666624,0 -1.271236,0.43924 -0.604613,0.43408 -0.925005,1.16789 -0.320393,0.72863 -0.320393,1.61746 0,1.51412 0.800982,2.32544 0.80615,0.80615 1.896519,0.80615 0.971514,0 1.74149,-0.88884 0.775144,-0.88883 0.775144,-2.32543 0,-1.53478 -0.785479,-2.33577 -0.785479,-0.80614 -1.912022,-0.80614 z"
         style="-inkscape-font-specification:Candara;fill:#000000;fill-opacity:1;stroke:url(#Strips1_1);stroke-width:0.365;stroke-linejoin:bevel;stroke-miterlimit:4;stroke-dasharray:none;stroke-opacity:1"
         id="path50276" />
    </g>
    <text
       xml:space="preserve"
       transform="scale(0.26458333)"
       id="text22068"
       style="font-style:normal;font-weight:normal;font-size:40px;line-height:1.25;font-family:sans-serif;white-space:pre;shape-inside:url(#rect22070);fill:#000000;fill-opacity:1;stroke:none" />
  </g>
</svg>
