<?xml version="1.0" encoding="UTF-8" standalone="no"?>
<!-- Creator: CorelDRAW 2018 (64-Bit) -->

<svg
   xml:space="preserve"
   width="105.83333mm"
   height="105.83333mm"
   version="1.1"
   style="clip-rule:evenodd;fill-rule:evenodd;image-rendering:optimizeQuality;shape-rendering:geometricPrecision;text-rendering:geometricPrecision"
   viewBox="0 0 10583.333 10583.333"
   id="svg15"
   xmlns="http://www.w3.org/2000/svg"
   xmlns:svg="http://www.w3.org/2000/svg">
 <defs
   id="defs4"><style
     type="text/css"
     id="style2">
   <![CDATA[
    .fil0 {fill:#2B2A29}
   ]]>
  </style></defs>
 <g
   id="Layer_x0020_1"
   transform="translate(-3528.4924,-2377.4343)">
  <metadata
   id="CorelCorpID_0Corel-Layer" />
  
 <g
   id="g14960"><rect
     style="fill:#ebff00;fill-opacity:1;fill-rule:evenodd;stroke-width:28.4384"
     id="rect856"
     width="10583.333"
     height="10583.333"
     x="3528.4924"
     y="2377.4343" /><g
     id="_2437356828224"
     transform="matrix(0.39155084,0,0,0.36190388,4403.8897,2101.1258)">
   <path
   class="fil0"
   d="m 6400.31,8872.59 c 1051.04,-1051.04 2755.14,-1051.04 3806.19,0 1051.05,1051.05 1051.05,2755.15 0,3806.2 -61.35,61.35 -125.02,118.98 -190.57,173.17 l -320.98,-320.98 c 66.51,-52.86 130.8,-109.89 192.32,-171.41 874.76,-874.76 874.76,-2293 0.01,-3167.75 -874.76,-874.75 -2293,-874.75 -3167.75,0 -874.75,874.75 -874.75,2292.99 0,3167.75 2889.49,2889.46 5778.97,5778.97 8668.46,8668.46 l -319.22,319.22 -8667.39,-8667.39 C 5346.65,11634.89 5353.31,9919.59 6400.31,8872.59 Z"
   id="path7" />
   <polygon
   class="fil0"
   points="8303.4,15756.58 15387.99,8671.99 15068.77,8352.76 7984.18,15437.35 "
   id="polygon9" />
   <path
   class="fil0"
   d="m 10206.5,20827.42 c -1051.04,1051.04 -2755.14,1051.04 -3806.19,0 -1051.05,-1051.05 -1051.05,-2755.15 0,-3806.2 61.35,-61.35 125.02,-118.98 190.56,-173.17 l 320.99,320.98 c -66.5,52.86 -130.8,109.89 -192.32,171.41 -874.76,874.76 -874.76,2293 -0.01,3167.75 874.76,874.75 2293,874.75 3167.75,0 874.75,-874.75 874.75,-2292.99 0,-3167.75 C 6997.79,14450.98 8703.53,16156.69 5814.04,13267.2 l 319.22,-319.22 4072.17,4072.17 c 1054.73,1044.97 1048.07,2760.26 1.07,3807.27 z"
   id="path11" />
  </g><text
     xml:space="preserve"
     style="font-style:normal;font-variant:normal;font-weight:normal;font-stretch:normal;font-size:2508.56px;line-height:1.25;font-family:'Nirmala UI';-inkscape-font-specification:'Nirmala UI';fill:#000000;fill-opacity:1;stroke:none;stroke-width:638.607"
     x="10897.576"
     y="-9666.9004"
     id="text8626"
     transform="scale(0.98850584,-1.0116278)"><tspan
       id="tspan8624"
       style="font-style:normal;font-variant:normal;font-weight:normal;font-stretch:normal;font-family:'Nirmala UI';-inkscape-font-specification:'Nirmala UI';stroke-width:638.607"
       x="10897.576"
       y="-9666.9004">.</tspan></text></g></g>
</svg>
