<?xml version="1.0" encoding="UTF-8" standalone="no"?>
<!-- Created with Inkscape (http://www.inkscape.org/) -->

<svg
   width="75.08387"
   height="100.71309"
   viewBox="0 0 19.86594 26.647"
   version="1.1"
   id="svg5"
   xmlns:xlink="http://www.w3.org/1999/xlink"
   xmlns="http://www.w3.org/2000/svg"
   xmlns:svg="http://www.w3.org/2000/svg">
  <defs
     id="defs2">
    <linearGradient
       id="linearGradient6055">
      <stop
         style="stop-color:#000000;stop-opacity:1;"
         offset="0"
         id="stop6053" />
    </linearGradient>
    <linearGradient
       id="linearGradient6019">
      <stop
         style="stop-color:#ed7768;stop-opacity:1;"
         offset="0"
         id="stop6017" />
    </linearGradient>
    <linearGradient
       id="linearGradient154583">
      <stop
         style="stop-color:#ed7768;stop-opacity:1;"
         offset="0"
         id="stop154581" />
    </linearGradient>
    <linearGradient
       id="linearGradient152646">
      <stop
         style="stop-color:#ed7768;stop-opacity:1;"
         offset="0"
         id="stop152644" />
    </linearGradient>
    <linearGradient
       id="linearGradient44646">
      <stop
         style="stop-color:#000000;stop-opacity:1;"
         offset="0"
         id="stop44644" />
    </linearGradient>
    <linearGradient
       xlink:href="#linearGradient154583"
       id="linearGradient6057"
       x1="91.63739"
       y1="85.665649"
       x2="111.71592"
       y2="85.665649"
       gradientUnits="userSpaceOnUse" />
  </defs>
  <g
     id="layer1"
     transform="translate(-85.635546,-78.317793)">
    <g
       aria-label="HE LLO"
       transform="scale(0.93479314,1.0697554)"
       id="text3884"
       style="font-size:15.2752px;line-height:0.95;letter-spacing:0px;fill:none;fill-rule:evenodd;stroke:url(#linearGradient6057);stroke-width:0.05">
      <path
         d="m 91.637391,73.235668 h 2.237578 v 4.109686 h 2.446418 v -4.109686 h 2.237578 v 10.180981 h -2.237578 v -4.161895 h -2.446418 v 4.161895 h -2.237578 z"
         style="font-family:'Franklin Gothic Demi Cond';-inkscape-font-specification:'Franklin Gothic Demi Cond'"
         id="path837" />
      <path
         d="m 100.48328,73.235668 h 6.19064 v 1.745311 h -3.95306 v 2.364375 h 3.07294 v 1.752769 h -3.07294 v 2.498629 h 3.95306 v 1.819897 h -6.19064 z"
         style="font-family:'Franklin Gothic Demi Cond';-inkscape-font-specification:'Franklin Gothic Demi Cond'"
         id="path839" />
      <path
         d="m 91.637391,87.758028 h 2.237578 v 8.27158 h 3.281781 v 1.9094 h -5.519359 z"
         style="font-family:'Franklin Gothic Demi Cond';-inkscape-font-specification:'Franklin Gothic Demi Cond'"
         id="path841" />
      <path
         d="m 98.141284,87.758028 h 2.237576 v 8.27158 h 3.28178 v 1.9094 h -5.519356 z"
         style="font-family:'Franklin Gothic Demi Cond';-inkscape-font-specification:'Franklin Gothic Demi Cond'"
         id="path843" />
      <path
         d="m 111.71592,92.844789 q 0,5.250849 -3.692,5.250849 -1.83481,0 -2.76714,-1.335088 -0.93232,-1.342547 -0.93232,-3.915761 0,-5.243392 3.692,-5.243392 1.80498,0 2.75222,1.312713 0.94724,1.312712 0.94724,3.930679 z m -2.35691,0 q 0,-2.058572 -0.32072,-2.737304 -0.32072,-0.686191 -1.02183,-0.686191 -0.69365,0 -1.01437,0.686191 -0.32072,0.68619 -0.32072,2.737304 0,2.01382 0.31326,2.722386 0.32072,0.708567 1.02183,0.708567 0.69365,0 1.01437,-0.678732 0.32818,-0.678732 0.32818,-2.752221 z"
         style="font-family:'Franklin Gothic Demi Cond';-inkscape-font-specification:'Franklin Gothic Demi Cond'"
         id="path845" />
    </g>
    <g
       aria-label="."
       id="text188561"
       style="font-size:10.5833px;line-height:1.25;fill:#ed7768;stroke-width:0.264583">
      <path
         d="m 104.8762,103.50208 q 0.25839,0 0.43925,0.18604 0.18604,0.18087 0.18604,0.44441 0,0.25839 -0.18604,0.44442 -0.18086,0.18087 -0.43925,0.18087 -0.25838,0 -0.44441,-0.18087 -0.18087,-0.18603 -0.18087,-0.44442 0,-0.26354 0.18087,-0.44441 0.18603,-0.18604 0.44441,-0.18604 z"
         style="font-family:'Baskerville Old Face';-inkscape-font-specification:'Baskerville Old Face'"
         id="path848" />
    </g>
  </g>
</svg>
