<?xml version="1.0" encoding="UTF-8" standalone="no"?>
<!-- Created with Inkscape (http://www.inkscape.org/) -->

<svg
   version="1.1"
   id="svg2"
   xml:space="preserve"
   width="332.81137"
   height="115.2906"
   viewBox="0 0 332.81137 115.29061"
   xmlns="http://www.w3.org/2000/svg"
   xmlns:svg="http://www.w3.org/2000/svg">
  <defs
   id="defs6">
    <clipPath
   clipPathUnits="userSpaceOnUse"
   id="clipPath18">
      <path
   d="M 0,100 H 250 V 0 H 0 Z"
   id="path16" />
    </clipPath>
  </defs>
  
  <g
   id="g8"
   transform="matrix(1.3333333,0,0,-1.3333333,0,133.33333)">
    <g
   id="g12">
      <g
   id="g14"
   clip-path="url(#clipPath18)">
        <g
   aria-label="           Sﬂdra K        "
   transform="matrix(0.99821939,0.08733242,0.05964941,-0.68179251,2.8858,32.8875)"
   id="text22"
   style="font-size:68.2404px;font-family:Romantica;-inkscape-font-specification:Romantica;fill:#ed7768"><path
     d="m 37.618855,-70.806081 h 1.732666 q 6.630781,0 8.929896,5.464563 0.333205,2.165833 0.333205,2.499038 0,5.264641 -5.231319,12.295268 -0.399847,0.233244 -0.866334,0.233244 h -0.333205 q -0.599769,0 -0.766371,-0.433167 v -0.433167 q 4.698191,-6.630781 4.698191,-11.462255 0,-4.564909 -4.464948,-6.097653 -1.732666,-0.533128 -3.731897,-0.533128 -10.729204,0 -23.324356,11.662178 -6.4641788,6.630781 -7.8303197,9.596307 -4.3649867,7.297191 -4.3649867,13.394844 0,9.762909 12.5285114,18.426242 l 10.262717,7.2971911 h 0.09996 Q 36.852483,-18.826088 42.183764,-21.091882 h 0.333205 q 0.166603,0 0.333205,0.333205 v 0.199923 l -4.464948,2.63232 q -4.698192,3.098808 -12.228627,9.6962683 7.863641,5.8977301 7.863641,12.5285113 v 1.2994999 q 0,8.4300885 -10.795845,16.5936135 -9.429704,6.197615 -16.4603317,6.197615 -5.0647173,0 -6.23093516,-3.498654 Q 0.33320509,24.490574 0.33320509,23.690882 V 22.92451 q 0,-8.030243 20.39215191,-27.6893428 0.199923,0 3.698576,-3.3653714 Q 13.494806,-15.360755 7.9636016,-19.692421 0,-26.623087 0,-33.620393 v -1.765987 q 0,-5.331282 4.6981918,-13.394845 1.8659485,-3.465333 8.4967302,-10.029473 13.294883,-11.995383 24.423933,-11.995383 z M 25.190305,-7.463794 Q 1.7326665,14.261178 1.7326665,22.724587 v 0.533128 q 0,4.031782 5.5645249,4.031782 7.7636786,0 17.9930746,-8.063563 7.397153,-6.997307 7.397153,-14.3944602 0,-6.9306659 -7.497114,-12.2952678 z"
     id="path829" /><path
     d="m 74.257023,-25.890035 h 0.166602 q 0.733052,0 0.733052,0.966294 -0.733052,5.431243 -0.899654,7.297192 0,3.531974 2.365756,3.531974 h 0.166603 q 3.432012,0 12.961678,-7.063948 0.599769,0 0.799692,0.333205 -0.799692,0.932974 -4.898115,3.631935 -6.197615,3.998461 -9.19646,3.998461 h -0.06664 q -3.365372,0 -3.365372,-4.165063 0,-1.832628 0.799692,-6.830704 -2.365756,2.132512 -5.964371,6.730742 -3.831858,5.064718 -5.997691,7.7969994 -0.399846,0.8996538 -1.132898,0.8996538 -1.33282,-0.066641 -1.33282,-0.7330512 1.166218,-3.598615 3.798538,-9.929512 h -0.09996 q -8.929896,8.130204 -12.961677,8.130204 -2.56568,0 -3.432013,-3.698576 -0.166602,-1.2995 -0.166602,-2.199154 v -0.999615 h -0.06664 q -0.799693,1.666026 -4.098423,4.59823 -1.765987,1.066257 -2.63232,1.066257 -1.799308,0 -1.799308,-1.399462 v -0.399846 q 0,-2.399076 3.198769,-6.330897 2.065872,-2.199153 4.165064,-2.199153 h 0.09996 q 0.932974,0 1.466103,0.499808 0.299884,-0.166603 0.66641,-0.166603 1.232859,0.06664 1.232859,0.63309 -0.733052,2.299115 -0.733052,4.831473 0,4.764833 2.599,4.764833 3.498654,0 13.927973,-9.82955 0.433166,-0.233243 0.833013,-0.233243 h 0.399846 q 0.733051,0 0.733051,0.633089 -2.932205,7.263871 -3.432013,8.696653 0.09996,0 5.264641,-6.897345 4.798153,-5.964371 5.89773,-5.964371 z m -33.687035,11.562216 h 0.166603 q 1.599384,-1.432782 3.831859,-4.764833 1.166217,-1.865948 1.166217,-1.96591 -0.333205,-0.166602 -0.599769,-0.166602 -1.99923,0 -4.165063,4.664871 -0.399847,1.466102 -0.399847,2.232474 z"
     id="path831" /><path
     d="m 110.22985,-51.546827 h 0.0666 q 0.53312,0.06664 0.53312,0.499807 v 0.09996 q -4.56491,15.827242 -6.89734,24.757138 -4.764835,18.4262414 -4.764835,27.7226634 0,2.5656792 0.433167,4.6315507 -0.166603,0.4998077 -0.699731,0.4998077 h -0.166602 q -0.599769,0 -0.599769,-1.5660639 -0.133282,-0.6997307 -0.199924,-3.1654484 0,-12.2952675 8.829934,-44.8160845 v -0.03332 h -0.0666 q -4.53159,10.096114 -8.56337,18.292959 0.166602,0.499808 0.233243,1.199538 0,1.332821 -1.166218,1.699346 h -0.03332 q -0.233244,0 -0.433167,-0.09996 -3.198769,6.664101 -6.397538,11.428934 -1.466102,1.9659102 -2.165833,1.9659102 -1.632705,-0.2998845 -1.632705,-2.3324352 -0.06664,-0.233244 -0.06664,-0.433167 0,-4.098423 3.998462,-11.229011 1.132897,-1.865949 3.098807,-3.731897 1.066256,-0.799693 2.165833,-0.799693 1.099577,0 1.932589,1.099577 5.931047,-12.728434 11.195687,-24.690497 0,-0.833013 1.36614,-0.999615 z m -22.158134,41.317431 q 0.09996,0.6664099 0.199923,0.6664099 h 0.09996 q 0.799693,0 3.065487,-4.0317819 1.832628,-3.132127 4.631551,-8.996537 -0.566449,-2.332436 -0.766372,-2.798923 -1.166218,0 -3.26541,3.665256 -3.531974,6.930666 -3.96514,11.495576 z"
     id="path833" /><path
     d="m 118.19159,-26.589766 h 0.1666 q 0.73305,0 2.63232,3.565294 2.2658,3.365372 6.1643,3.365372 1.76598,0 4.86479,-0.866333 0.46649,0.166602 0.46649,0.299884 v 0.233244 q -0.33321,0.66641 -5.26464,1.032935 h -0.0666 q -6.03101,0 -8.79662,-6.230935 h -0.1 q -0.89965,0.833013 -3.7319,4.664872 -5.13135,6.797383 -7.06394,9.796229 -0.46649,0.599769 -1.09958,0.699731 h -0.23324 q -0.59977,0 -0.93298,-0.466487 v -0.06664 q 0,-0.866334 4.26503,-11.029089 0.39984,-1.032936 1.03293,-1.032936 0,-0.09996 0.29989,-0.133282 h 0.39984 q 0.83302,0.09996 0.83302,0.666411 l -2.46572,5.93105 h 0.13328 q 2.66564,-4.198384 6.46418,-8.796614 1.4661,-1.632705 2.03255,-1.632706 z"
     id="path835" /><path
     d="m 135.17172,-22.757908 q 1.36614,0.133282 1.36614,0.466488 0.26657,-0.133282 0.69973,-0.133282 h 0.26657 q 0.83301,0.06664 0.83301,0.599769 -0.66641,2.332435 -0.66641,4.231704 v 0.699731 q 0,3.29873 1.89927,4.198384 0.56645,0.133282 0.99961,0.133282 h 0.0667 q 3.46533,0 11.8621,-7.963601 0.19992,-0.166603 0.4998,-0.166603 h 0.16661 q 0.43316,0.06664 0.43316,0.333205 -0.89965,1.032936 -2.99884,2.832243 -6.73075,5.831089 -10.36268,5.831089 h -0.36653 q -2.26579,0 -3.26541,-2.998845 -0.3332,-1.466103 -0.3332,-3.432013 l 0.0333,-0.266564 q -3.79854,5.397923 -6.69742,5.397923 -1.46611,-0.133283 -1.46611,-1.366141 v -0.166603 q 0,-2.465718 3.09881,-6.264256 2.03255,-1.96591 3.93182,-1.96591 z m -4.53159,7.797 v 0.03332 q 0,0.06664 -0.0333,0.06664 0.0333,0.09996 0.0333,0.166603 0.53313,0 2.79893,-3.065487 1.56606,-2.332436 2.09919,-3.26541 -0.29989,-0.199923 -0.53313,-0.199923 -1.86595,0 -3.86518,4.065102 -0.49981,1.2995 -0.49981,2.199155 z"
     id="path837" /><path
     d="m 196.16958,-72.00562 h 0.26657 q 0.43316,0 0.66641,0.499808 -1.56607,9.929512 -4.03178,20.225549 -2.53236,10.129435 -5.33129,19.992305 h 0.0667 q 6.43085,-5.031397 18.82608,-14.361139 6.66411,-5.131359 12.32859,-10.395999 3.03217,-2.965525 4.33167,-4.798153 0.53313,-0.399846 1.1329,-0.399846 0.86633,0 0.86633,0.633089 -0.56645,1.366141 -5.06472,5.597846 -7.36383,6.53082 -18.42624,14.561062 -8.86326,6.464179 -14.6277,11.195691 -3.86518,13.228242 -4.13175,14.261178 0.9663,1.632705 5.96437,6.5974608 8.53005,7.53043497 13.86134,10.9624474 11.79546,8.1635248 23.39099,13.5614468 9.92951,4.364987 14.96091,4.364987 2.06587,0 2.06587,-1.132897 0.53313,-0.699731 1.23286,-0.699731 h 0.36653 q 0.69973,0.06664 0.69973,0.566449 0,1.199538 -2.03255,2.265794 -1.16622,0.433167 -2.79893,0.433167 -6.63078,0 -21.79161,-8.230166 -9.56298,-5.1313582 -21.09188,-13.59476747 -5.73113,-4.29834563 -11.6955,-10.09611423 -1.49942,-1.4661023 -3.49865,-3.7985383 -6.53082,21.4250875 -11.26233,39.984611 -0.26657,0.233244 -0.53313,0.233244 h -0.36653 q -0.1,0 -0.26656,-0.233244 4.49827,-17.7265107 11.29565,-41.550675 -2.79892,-3.698576 -2.79892,-6.330896 0.1666,-2.099192 6.73074,-7.663717 4.56491,-16.893498 7.76368,-33.020625 0.63309,-3.032166 1.59938,-8.996537 0.46649,-0.63309 1.33282,-0.63309 z m -15.96052,50.547212 q 0,1.799308 1.6327,4.764833 h 0.13329 l 2.86556,-10.529281 h -0.0666 q -4.56491,4.065102 -4.56491,5.764448 z"
     id="path839" /></g>
      </g>
    </g>
    <g
   aria-label="           "
   transform="matrix(1,0,0,-1,57.248,20.3887)"
   id="text26"
   style="font-size:12px;font-family:'Microsoft Yi Baiti';-inkscape-font-specification:Microsoft-Yi-Baiti;fill:#ffffff" />
  </g>
</svg>
