<?xml version="1.0" encoding="UTF-8" standalone="no"?>
<!-- Created with Inkscape (http://www.inkscape.org/) -->

<svg
   xmlns:dc="http://purl.org/dc/elements/1.1/"
   xmlns:cc="http://creativecommons.org/ns#"
   xmlns:rdf="http://www.w3.org/1999/02/22-rdf-syntax-ns#"
   xmlns:svg="http://www.w3.org/2000/svg"
   xmlns="http://www.w3.org/2000/svg"
   xmlns:sodipodi="http://sodipodi.sourceforge.net/DTD/sodipodi-0.dtd"
   xmlns:inkscape="http://www.inkscape.org/namespaces/inkscape"
   version="1.1"
   id="svg1105"
   xml:space="preserve"
   width="800"
   height="800"
   viewBox="0 0 800 800"
   sodipodi:docname="abstract-svg-tiles.svg"
   inkscape:version="0.92.4 (5da689c313, 2019-01-14)"><metadata
     id="metadata1111"><rdf:RDF><cc:Work
         rdf:about=""><dc:format>image/svg+xml</dc:format><dc:type
           rdf:resource="http://purl.org/dc/dcmitype/StillImage" /><dc:title></dc:title></cc:Work></rdf:RDF></metadata><defs
     id="defs1109"><clipPath
       clipPathUnits="userSpaceOnUse"
       id="clipPath1121"><path
         d="M 0,600 H 600 V 0 H 0 Z"
         id="path1119"
         inkscape:connector-curvature="0" /></clipPath><radialGradient
       fx="0"
       fy="0"
       cx="0"
       cy="0"
       r="1"
       gradientUnits="userSpaceOnUse"
       gradientTransform="matrix(300.48779,0,0,-300.48779,301.05273,298.94922)"
       spreadMethod="pad"
       id="radialGradient1139"><stop
         style="stop-opacity:1;stop-color:#ffffff"
         offset="0"
         id="stop1135" /><stop
         style="stop-opacity:1;stop-color:#de9e48"
         offset="1"
         id="stop1137" /></radialGradient></defs><sodipodi:namedview
     pagecolor="#ffffff"
     bordercolor="#7a431d"
     borderopacity="1"
     objecttolerance="10"
     gridtolerance="10"
     guidetolerance="10"
     inkscape:pageopacity="0"
     inkscape:pageshadow="2"
     inkscape:window-width="1920"
     inkscape:window-height="1018"
     id="namedview1107"
     showgrid="false"
     inkscape:zoom="0.77300926"
     inkscape:cx="469.49153"
     inkscape:cy="383.05085"
     inkscape:window-x="-8"
     inkscape:window-y="-8"
     inkscape:window-maximized="1"
     inkscape:current-layer="g1113" /><g
     id="g1113"
     inkscape:groupmode="layer"
     inkscape:label="abstract-519-publicdomainvectors.org [Converted]"
     transform="matrix(1.3333333,0,0,-1.3333333,0,800)"><g
       id="g1115"><g
         id="g1117"
         clip-path="url(#clipPath1121)"><g
           id="g1123"><g
             id="g1125"><g
               id="g1131"><g
                 id="g1133"><path
                   d="m 601.541,4.44 c -1.542,-1.995 -3.114,-3.988 -4.718,-5.978 h 4.718 z m -16.885,27.748 c -6.975,-8.236 -14.573,-16.391 -22.814,-24.389 3.982,-1.294 7.984,-2.541 12.007,-3.71 7.973,8.391 15.288,16.913 21.959,25.504 -3.732,0.806 -7.451,1.666 -11.152,2.595 m 5.101,51.175 c -4.929,-6.933 -10.326,-13.789 -16.165,-20.554 3.526,-0.962 7.078,-1.871 10.637,-2.744 5.631,7.048 10.791,14.181 15.5,21.358 -3.335,0.597 -6.659,1.24 -9.972,1.94 M 553.23,41.581 c -7.664,-7.223 -15.929,-14.283 -24.811,-21.086 3.948,-1.715 7.941,-3.368 11.977,-4.957 8.676,7.242 16.74,14.69 24.167,22.3 -3.808,1.191 -7.583,2.45 -11.333,3.743 M 507.084,-1.538 c -2.027,1.025 -4.04,2.065 -6.038,3.12 -1.686,-1.049 -3.388,-2.089 -5.108,-3.12 z m -506.519,0 h 21.314 c 0.047,0.136 0.094,0.27 0.141,0.406 C 14.596,3.443 7.432,8.246 0.565,13.267 Z m 600.976,509.353 c -0.764,-0.263 -1.527,-0.524 -2.292,-0.783 -0.059,-3.366 -0.061,-6.695 -0.037,-9.987 0.777,0.268 1.554,0.538 2.329,0.81 z m 0,-47.625 c -0.236,-0.083 -0.472,-0.165 -0.708,-0.247 0.218,-2.807 0.456,-5.591 0.708,-8.355 z m 0,-310.187 c -0.098,-0.219 -0.195,-0.437 -0.294,-0.655 0.098,-0.011 0.196,-0.023 0.294,-0.034 z m -11.243,-21.954 c -3.444,-5.929 -7.204,-11.82 -11.314,-17.635 3.154,-0.726 6.329,-1.389 9.515,-2.019 3.934,6.026 7.522,12.114 10.795,18.219 -3.008,0.438 -6.01,0.913 -8.996,1.435 m -27.304,-37.92 c -5.462,-6.221 -11.348,-12.344 -17.701,-18.286 3.517,-1.289 7.067,-2.517 10.653,-3.701 6.181,6.251 11.892,12.664 17.164,19.163 -3.396,0.897 -6.769,1.837 -10.116,2.824 M 523.455,53.394 c -8.124,-6.2 -16.816,-12.148 -26.067,-17.769 3.781,-2.062 7.626,-4.075 11.535,-6.027 9.14,6.07 17.697,12.441 25.673,19.034 -3.758,1.54 -7.474,3.12 -11.141,4.762 M 450.589,-1.538 c 10.603,4.473 20.727,9.324 30.364,14.458 -3.997,2.391 -7.891,4.876 -11.732,7.368 -11.443,-5.536 -23.533,-10.63 -36.231,-15.175 2.776,-2.237 5.604,-4.455 8.485,-6.651 z m -290.61,0 c -0.298,0.088 -0.596,0.176 -0.894,0.265 0.003,-0.088 0.006,-0.177 0.008,-0.265 z m -36.467,0 c 0.32,4.119 0.703,8.184 1.147,12.194 C 105.602,18.229 87.546,27.307 70.835,37.659 68.496,31.052 66.242,24.264 64.14,17.276 76.42,10.345 89.292,4.055 102.639,-1.538 Z M 0.565,65.558 C 11.13,54.665 23.091,44.467 36.183,35.1 c 3.039,6.921 6.194,13.628 9.44,20.116 C 30.741,66.827 17.632,79.62 6.778,93.289 4.718,90.677 2.641,88.037 0.565,85.358 Z m 578.662,490.333 c -0.187,-3.521 -0.343,-6.996 -0.443,-10.428 3.128,0.896 6.248,1.847 9.391,2.762 0.232,3.456 0.505,6.955 0.822,10.501 -3.263,-0.957 -6.516,-1.912 -9.77,-2.835 m 0.139,-55.222 c 0.185,-3.311 0.389,-6.584 0.636,-9.819 2.561,0.773 5.12,1.579 7.686,2.384 -0.159,3.257 -0.282,6.552 -0.374,9.885 -2.647,-0.84 -5.298,-1.656 -7.948,-2.45 m 4.387,-46.305 c 0.416,-3.238 0.848,-6.447 1.299,-9.627 2.215,0.682 4.439,1.365 6.657,2.075 -0.391,3.199 -0.76,6.43 -1.121,9.689 -2.277,-0.727 -4.556,-1.446 -6.835,-2.137 m 6.146,-40.856 c 0.543,-3.263 1.093,-6.504 1.642,-9.722 2.027,0.589 4.056,1.191 6.076,1.809 -0.517,3.238 -1.024,6.501 -1.531,9.785 -2.061,-0.644 -4.122,-1.273 -6.187,-1.872 m 11.642,-36.054 c -1.737,-0.495 -3.476,-0.975 -5.214,-1.441 0.575,-3.369 1.144,-6.724 1.698,-10.062 1.171,0.301 2.344,0.611 3.516,0.926 z m 0,-174.558 c -0.64,0.024 -1.278,0.05 -1.917,0.079 -1.245,-4.795 -2.651,-9.589 -4.244,-14.366 2.051,-0.166 4.103,-0.307 6.161,-0.434 z M 587.32,167.95 c -2.329,-5.153 -4.885,-10.289 -7.698,-15.375 2.843,-0.525 5.7,-1.003 8.576,-1.457 2.676,5.241 5.108,10.518 7.307,15.812 -2.74,0.303 -5.471,0.645 -8.185,1.02 m -20.012,-35.055 c -3.83,-5.439 -7.981,-10.799 -12.454,-16.06 3.138,-0.953 6.307,-1.87 9.501,-2.752 4.343,5.48 8.341,11.064 12.032,16.694 -3.051,0.663 -6.078,1.369 -9.079,2.118 M 537.593,98.686 c -5.831,-5.511 -12.09,-10.851 -18.747,-16.003 3.389,-1.543 6.827,-3.053 10.318,-4.517 6.557,5.465 12.686,11.114 18.381,16.913 -3.353,1.17 -6.677,2.364 -9.952,3.607 M 496.143,66.97 c -8.365,-5.196 -17.242,-10.065 -26.587,-14.602 3.493,-2.315 7.063,-4.598 10.713,-6.84 9.333,4.961 18.16,10.263 26.456,15.846 -3.594,1.814 -7.118,3.695 -10.582,5.596 M 441.396,40.351 c -11.315,-4.203 -23.146,-7.925 -35.457,-11.079 3.281,-3.256 6.686,-6.491 10.203,-9.697 12.497,3.683 24.471,7.923 35.868,12.652 -3.638,2.674 -7.162,5.399 -10.614,8.124 m -68.16,-17.922 c -14.261,-2.359 -28.958,-3.934 -43.974,-4.727 2.579,-4.269 5.309,-8.556 8.203,-12.839 15.537,1.369 30.673,3.555 45.301,6.485 -3.308,3.681 -6.488,7.377 -9.53,11.081 m -78.944,-5.077 c -16.496,0.527 -33.127,2.052 -49.716,4.594 1.217,-5.17 2.657,-10.396 4.243,-15.689 17.523,-2.086 35.007,-3.08 52.265,-3.014 -2.419,4.736 -4.715,9.426 -6.792,14.109 M 210.99,28.593 c -17.068,4.132 -33.738,9.45 -49.782,15.845 -0.687,-5.671 -1.247,-11.478 -1.604,-17.416 17.341,-6.229 35.275,-11.217 53.516,-14.972 -0.878,5.604 -1.615,11.116 -2.13,16.543 m -77.768,28.578 c -15.253,7.815 -29.456,16.764 -42.326,26.653 -2.893,-5.572 -5.699,-11.338 -8.395,-17.299 14.3,-10.124 29.967,-19.156 46.653,-26.957 1.203,6.027 2.589,11.889 4.068,17.603 m -61.436,43.094 c -11.074,10.716 -20.55,22.228 -28.108,34.237 -4.886,-4.843 -9.752,-9.917 -14.597,-15.211 8.745,-12.68 19.569,-24.71 32.052,-35.806 3.485,5.793 7.064,11.372 10.653,16.78 m 483.347,449.032 c 0.137,-3.461 0.294,-6.876 0.489,-10.243 3.184,0.851 6.387,1.708 9.595,2.597 -0.073,3.394 -0.111,6.835 -0.104,10.322 -3.341,-0.918 -6.668,-1.804 -9.98,-2.676 m 4.568,-54.26 c 0.414,-3.254 0.844,-6.472 1.288,-9.652 2.623,0.715 5.249,1.456 7.89,2.201 -0.36,3.205 -0.702,6.445 -1.022,9.723 -2.729,-0.768 -5.445,-1.536 -8.156,-2.272 m 7.08,-45.53 c 0.573,-3.186 1.156,-6.342 1.74,-9.469 2.284,0.612 4.572,1.235 6.865,1.881 -0.52,3.15 -1.047,6.329 -1.556,9.536 -2.357,-0.663 -4.704,-1.321 -7.049,-1.948 m 7.723,-40.189 c 0.64,-3.21 1.275,-6.396 1.908,-9.563 2.094,0.515 4.191,1.047 6.291,1.603 -0.595,3.187 -1.196,6.397 -1.8,9.629 -2.133,-0.578 -4.272,-1.132 -6.399,-1.669 m 7.216,-36.871 c 0.627,-3.31 1.225,-6.607 1.807,-9.888 2.007,0.426 4.019,0.872 6.033,1.332 -0.572,3.306 -1.16,6.627 -1.763,9.963 -2.028,-0.485 -4.058,-0.95 -6.077,-1.407 m 5.869,-34.873 c 0.503,-3.474 0.976,-6.94 1.413,-10.398 2.001,0.329 4.01,0.678 6.018,1.045 -0.445,3.487 -0.921,6.982 -1.428,10.486 -2.005,-0.397 -4.006,-0.777 -6.003,-1.133 m 3.774,-33.763 c 0.271,-3.693 0.496,-7.382 0.658,-11.067 2.06,0.215 4.134,0.451 6.206,0.709 -0.189,3.725 -0.44,7.454 -0.737,11.185 -2.048,-0.297 -4.09,-0.57 -6.127,-0.827 m 0.885,-33.251 c -0.103,-3.962 -0.288,-7.917 -0.555,-11.872 2.184,0.072 4.376,0.167 6.578,0.289 0.217,4.008 0.351,8.019 0.407,12.027 -2.15,-0.172 -4.294,-0.319 -6.43,-0.444 m -2.92,-33.123 c -0.666,-4.254 -1.449,-8.504 -2.366,-12.745 2.361,-0.11 4.731,-0.202 7.112,-0.263 0.838,4.321 1.553,8.646 2.148,12.972 -2.306,-0.014 -4.608,-0.002 -6.894,0.036 m -7.83,-33.124 c -1.478,-4.551 -3.123,-9.088 -4.948,-13.598 2.572,-0.359 5.165,-0.697 7.773,-1.002 1.729,4.623 3.287,9.265 4.67,13.923 -2.512,0.195 -5.013,0.426 -7.495,0.677 m -14.081,-32.976 c -2.604,-4.806 -5.432,-9.572 -8.519,-14.262 2.808,-0.708 5.646,-1.371 8.514,-2.011 2.979,4.856 5.707,9.773 8.199,14.731 -2.757,0.483 -5.485,0.998 -8.194,1.542 m -21.886,-32.283 c -4.106,-4.941 -8.538,-9.767 -13.273,-14.469 3.029,-1.15 6.101,-2.273 9.212,-3.366 4.641,4.927 8.963,9.983 12.971,15.128 -3.005,0.866 -5.974,1.768 -8.91,2.707 m -31.352,-30.505 c -6.05,-4.817 -12.497,-9.417 -19.305,-13.798 3.158,-1.749 6.385,-3.468 9.674,-5.147 6.771,4.684 13.142,9.61 19.129,14.702 -3.219,1.382 -6.385,2.797 -9.498,4.243 M 471.892,81.612 c -8.388,-4.248 -17.207,-8.151 -26.417,-11.705 3.101,-2.471 6.288,-4.937 9.572,-7.366 9.303,3.925 18.163,8.244 26.565,12.875 -3.314,2.039 -6.556,4.106 -9.72,6.196 M 418.001,60.825 c -10.915,-3.047 -22.233,-5.598 -33.896,-7.593 2.702,-3.309 5.531,-6.613 8.481,-9.918 11.96,2.435 23.521,5.456 34.627,8.968 -3.175,2.836 -6.25,5.681 -9.212,8.543 M 353.482,49.379 c -13.19,-1.081 -26.642,-1.458 -40.251,-1.093 1.833,-4.12 3.819,-8.277 5.946,-12.474 14.211,0.08 28.2,0.925 41.86,2.485 -2.646,3.714 -5.188,7.391 -7.555,11.082 m -71.532,1.077 c -14.559,1.618 -29.072,4.125 -43.376,7.514 0.429,-4.738 1.008,-9.565 1.768,-14.47 15.241,-3.098 30.634,-5.225 45.997,-6.462 -1.626,4.524 -3.09,8.998 -4.389,13.418 m -71.949,15.596 c -14.313,4.744 -28.117,10.421 -41.214,16.962 -1.378,-4.942 -2.603,-10.036 -3.711,-15.266 14.275,-6.522 29.229,-12.102 44.65,-16.654 -0.07,5.093 0.026,10.082 0.275,14.958 m -63.736,29.636 c -12.097,7.614 -23.167,16.076 -32.996,25.198 -3.252,-4.629 -6.428,-9.449 -9.526,-14.456 11.013,-9.464 23.303,-18.167 36.645,-25.904 1.869,5.209 3.817,10.266 5.877,15.162 M 98.92,135.854 c -8.18,9.633 -14.945,19.816 -20.032,30.267 -4.79,-3.892 -9.658,-7.894 -14.46,-12.167 6.004,-11.103 13.852,-21.806 23.125,-31.915 3.724,4.81 7.544,9.395 11.367,13.815 M 531.896,543.25 c 0.441,-3.395 0.903,-6.745 1.375,-10.05 3.168,0.824 6.366,1.647 9.585,2.488 -0.356,3.333 -0.68,6.711 -0.996,10.135 -3.348,-0.861 -6.664,-1.74 -9.964,-2.573 m 8.753,-53.266 c 0.625,-3.198 1.261,-6.359 1.901,-9.484 2.623,0.674 5.262,1.366 7.922,2.063 -0.561,3.148 -1.104,6.335 -1.643,9.557 -2.743,-0.726 -5.475,-1.428 -8.18,-2.136 m 9.615,-44.747 c 0.718,-3.131 1.435,-6.233 2.153,-9.309 2.295,0.557 4.604,1.127 6.928,1.723 -0.661,3.099 -1.321,6.224 -1.98,9.379 -2.379,-0.61 -4.749,-1.207 -7.101,-1.793 m 9.201,-39.509 c 0.729,-3.155 1.447,-6.287 2.153,-9.4 2.112,0.46 4.234,0.943 6.367,1.423 -0.672,3.137 -1.358,6.294 -2.047,9.473 -2.168,-0.512 -4.327,-1.01 -6.473,-1.496 m 7.952,-36.226 c 0.659,-3.251 1.297,-6.485 1.908,-9.704 2.028,0.355 4.069,0.74 6.117,1.129 -0.599,3.249 -1.224,6.511 -1.864,9.788 -2.065,-0.414 -4.119,-0.823 -6.161,-1.213 m 6.046,-34.198 c 0.495,-3.402 0.953,-6.79 1.369,-10.172 2.024,0.255 4.06,0.524 6.102,0.812 -0.423,3.417 -0.887,6.84 -1.383,10.276 -2.039,-0.324 -4.069,-0.63 -6.088,-0.916 m 3.492,-32.991 c 0.22,-3.599 0.376,-7.191 0.475,-10.776 2.08,0.129 4.175,0.278 6.282,0.444 -0.125,3.631 -0.312,7.267 -0.552,10.91 -2.078,-0.213 -4.148,-0.401 -6.205,-0.578 m 0.213,-32.309 c -0.199,-3.831 -0.489,-7.656 -0.878,-11.475 2.191,-0.024 4.395,-0.028 6.619,-0.015 0.339,3.878 0.586,7.76 0.744,11.647 -2.174,-0.071 -4.336,-0.124 -6.485,-0.157 m -3.922,-31.915 c -0.816,-4.073 -1.752,-8.139 -2.826,-12.184 2.343,-0.229 4.709,-0.435 7.092,-0.619 1.009,4.131 1.883,8.277 2.635,12.434 -2.318,0.102 -4.62,0.225 -6.901,0.369 m -9.099,-31.536 c -1.662,-4.303 -3.5,-8.575 -5.517,-12.804 2.522,-0.498 5.075,-0.968 7.651,-1.416 1.948,4.35 3.705,8.741 5.288,13.151 -2.497,0.331 -4.972,0.687 -7.422,1.069 m -15.483,-30.878 c -2.806,-4.455 -5.854,-8.838 -9.129,-13.144 2.703,-0.848 5.447,-1.666 8.223,-2.465 3.208,4.467 6.164,9.019 8.89,13.625 -2.692,0.638 -5.356,1.297 -7.984,1.984 m -23.219,-29.522 c -4.291,-4.447 -8.889,-8.757 -13.765,-12.922 2.84,-1.298 5.729,-2.584 8.673,-3.838 4.835,4.385 9.358,8.931 13.592,13.586 -2.882,1.032 -5.716,2.089 -8.5,3.174 m -32.231,-26.948 c -6.131,-4.147 -12.607,-8.075 -19.405,-11.748 2.848,-1.88 5.775,-3.735 8.781,-5.567 6.822,3.966 13.293,8.193 19.412,12.619 -2.993,1.544 -5.926,3.106 -8.788,4.696 M 451.08,96.651 c -8.221,-3.41 -16.795,-6.475 -25.689,-9.159 2.64,-2.545 5.383,-5.081 8.23,-7.606 9.06,3.029 17.759,6.451 26.067,10.221 -2.958,2.164 -5.826,4.348 -8.608,6.544 M 399.143,80.9 c -10.316,-2.095 -20.928,-3.697 -31.777,-4.754 2.103,-3.243 4.322,-6.509 6.671,-9.788 11.22,1.42 22.155,3.421 32.748,5.91 -2.655,2.882 -5.21,5.756 -7.642,8.632 m -59.929,-6.286 c -11.984,-0.14 -24.1,0.358 -36.238,1.557 1.105,-3.87 2.386,-7.786 3.803,-11.758 12.78,-0.866 25.482,-1.038 38,-0.516 -2.001,3.596 -3.841,7.179 -5.565,10.717 m -63.807,5.423 c -12.669,2.327 -25.171,5.403 -37.363,9.232 -0.252,-4.241 -0.382,-8.584 -0.357,-13.024 13.089,-3.671 26.442,-6.541 39.92,-8.612 -0.885,4.204 -1.618,8.341 -2.2,12.404 m -61.406,17.956 c -11.892,4.937 -23.229,10.611 -33.82,16.993 -1.884,-4.226 -3.666,-8.604 -5.329,-13.132 11.616,-6.502 23.988,-12.189 36.89,-17.083 0.599,4.529 1.402,8.933 2.259,13.222 m -51.809,29.089 c -9.52,7.165 -18.12,14.912 -25.533,23.176 -3.456,-3.791 -6.857,-7.773 -10.229,-11.91 8.374,-8.662 17.991,-16.723 28.57,-24.099 2.325,4.429 4.719,8.712 7.192,12.833 m -36.193,36.565 c -5.999,8.514 -10.709,17.444 -13.97,26.47 -4.683,-3.044 -9.418,-6.214 -14.14,-9.602 3.999,-9.623 9.555,-19.062 16.392,-28.086 3.872,3.927 7.796,7.65 11.718,11.218 M 498.76,599.438 c 0.319,-2.2 0.641,-4.378 0.978,-6.535 3.947,1.05 7.952,2.064 12.004,3.106 -0.124,1.137 -0.245,2.28 -0.363,3.429 z m 11.256,-61.857 c 0.711,-3.33 1.449,-6.61 2.179,-9.846 3.08,0.802 6.19,1.624 9.343,2.434 -0.623,3.269 -1.224,6.581 -1.822,9.941 -3.271,-0.86 -6.508,-1.684 -9.7,-2.529 m 12.587,-52.226 c 0.822,-3.135 1.644,-6.237 2.464,-9.306 2.56,0.651 5.147,1.303 7.764,1.969 -0.741,3.095 -1.479,6.224 -2.218,9.387 -2.701,-0.695 -5.37,-1.376 -8.01,-2.05 m 11.939,-43.933 c 0.85,-3.077 1.695,-6.124 2.528,-9.146 2.253,0.528 4.527,1.059 6.826,1.604 -0.782,3.045 -1.57,6.12 -2.364,9.221 -2.353,-0.567 -4.682,-1.139 -6.99,-1.679 m 10.55,-38.813 c 0.811,-3.096 1.603,-6.174 2.381,-9.228 2.076,0.422 4.177,0.842 6.297,1.282 -0.75,3.081 -1.505,6.183 -2.281,9.307 -2.155,-0.463 -4.285,-0.919 -6.397,-1.361 m 8.626,-35.554 c 0.697,-3.189 1.361,-6.362 1.996,-9.519 2.003,0.314 4.021,0.637 6.063,0.968 -0.625,3.186 -1.28,6.388 -1.96,9.602 -2.048,-0.365 -4.086,-0.71 -6.099,-1.051 m 6.209,-33.496 c 0.487,-3.326 0.933,-6.636 1.331,-9.943 1.996,0.199 4.012,0.403 6.045,0.628 -0.404,3.341 -0.857,6.688 -1.348,10.05 -2.027,-0.263 -4.038,-0.501 -6.028,-0.735 m 3.246,-32.183 c 0.169,-3.503 0.278,-6.992 0.313,-10.477 2.05,0.063 4.118,0.141 6.202,0.229 -0.06,3.529 -0.186,7.069 -0.379,10.616 -2.066,-0.14 -4.114,-0.257 -6.136,-0.368 m -0.365,-31.325 c -0.288,-3.7 -0.672,-7.389 -1.154,-11.062 2.143,-0.108 4.312,-0.199 6.503,-0.27 0.439,3.736 0.782,7.487 1.037,11.247 -2.151,0.013 -4.28,0.041 -6.386,0.085 m -4.76,-30.667 c -0.934,-3.898 -1.996,-7.774 -3.201,-11.617 2.273,-0.322 4.573,-0.622 6.9,-0.907 1.15,3.936 2.162,7.897 3.044,11.873 -2.275,0.2 -4.523,0.415 -6.743,0.651 m -10.104,-29.93 c -1.804,-4.052 -3.782,-8.062 -5.948,-12.013 2.41,-0.593 4.858,-1.171 7.34,-1.732 2.11,4.074 4.032,8.203 5.772,12.369 -2.42,0.437 -4.808,0.9 -7.164,1.376 M 531.439,180.66 c -2.947,-4.106 -6.118,-8.134 -9.523,-12.054 2.531,-0.951 5.105,-1.884 7.73,-2.8 3.359,4.089 6.48,8.276 9.372,12.541 -2.57,0.753 -5.097,1.523 -7.579,2.313 m -24.005,-26.854 c -4.387,-3.979 -9.038,-7.815 -13.955,-11.469 2.574,-1.399 5.214,-2.781 7.917,-4.147 4.915,3.879 9.549,7.927 13.908,12.114 -2.684,1.143 -5.303,2.318 -7.87,3.502 m -32.413,-23.65 c -6.073,-3.552 -12.452,-6.868 -19.109,-9.906 2.478,-1.933 5.043,-3.852 7.692,-5.763 6.738,3.316 13.169,6.904 19.284,10.709 -2.695,1.642 -5.32,3.292 -7.867,4.96 m -41.16,-18.673 c -7.897,-2.703 -16.086,-5.051 -24.523,-7.005 2.142,-2.522 4.405,-5.04 6.766,-7.572 8.662,2.271 17.039,4.923 25.096,7.93 -2.542,2.216 -4.992,4.43 -7.339,6.647 M 384.688,99.916 c -9.586,-1.334 -19.382,-2.19 -29.315,-2.54 1.495,-3.088 3.114,-6.212 4.868,-9.359 10.355,0.635 20.529,1.811 30.455,3.467 -2.114,2.829 -4.124,5.637 -6.008,8.432 m -54.826,-2.358 c -10.742,0.533 -21.507,1.662 -32.207,3.371 0.496,-3.526 1.095,-7.129 1.853,-10.792 11.345,-1.504 22.716,-2.38 34.022,-2.643 -1.353,3.403 -2.574,6.758 -3.668,10.064 m -56.23,8.271 c -10.917,2.723 -21.59,6.065 -31.884,10.053 -0.82,-3.713 -1.54,-7.535 -2.121,-11.465 11.123,-3.939 22.598,-7.195 34.287,-9.778 -0.235,3.815 -0.341,7.549 -0.282,11.19 m -51.962,18.869 c -9.819,4.857 -19.073,10.309 -27.575,16.339 -2.25,-3.555 -4.432,-7.252 -6.532,-11.092 9.409,-6.192 19.549,-11.775 30.264,-16.7 1.154,3.949 2.449,7.768 3.843,11.453 m -41.86,27.57 c -7.467,6.563 -14.084,13.563 -19.617,20.936 -3.553,-3.069 -7.102,-6.274 -10.616,-9.652 6.325,-7.777 13.777,-15.124 22.119,-21.962 2.642,3.714 5.377,7.249 8.114,10.678 m -27.439,32.771 c -4.289,7.492 -7.456,15.249 -9.42,22.988 -4.543,-2.31 -9.111,-4.792 -13.705,-7.43 2.51,-8.296 6.323,-16.561 11.316,-24.516 3.924,3.153 7.883,6.109 11.809,8.958 m 329.298,414.399 c -3.158,-0.887 -6.274,-1.775 -9.344,-2.672 0.878,-3.618 1.772,-7.177 2.658,-10.683 3.699,1.076 7.464,2.146 11.297,3.21 -0.701,3.33 -1.387,6.711 -2.056,10.145 z m 8.246,-67.324 c 0.964,-3.253 1.934,-6.46 2.902,-9.624 2.903,0.819 5.859,1.637 8.867,2.445 -0.859,3.2 -1.724,6.441 -2.579,9.73 -3.115,-0.851 -6.178,-1.696 -9.19,-2.551 m 16,-51.11 c 0.998,-3.075 1.984,-6.116 2.965,-9.122 2.434,0.647 4.908,1.281 7.42,1.93 -0.91,3.036 -1.821,6.107 -2.739,9.211 -2.59,-0.673 -5.14,-1.345 -7.646,-2.019 m 14.007,-43.087 c 0.968,-3.017 1.921,-6.009 2.865,-8.975 2.153,0.504 4.339,1.013 6.555,1.536 -0.891,2.992 -1.792,6.011 -2.709,9.055 -2.272,-0.536 -4.507,-1.08 -6.711,-1.616 m 11.752,-38.087 c 0.882,-3.039 1.743,-6.059 2.58,-9.056 1.997,0.392 4.023,0.784 6.071,1.19 -0.803,3.025 -1.637,6.07 -2.486,9.138 -2.084,-0.431 -4.139,-0.861 -6.165,-1.272 m 9.221,-34.869 c 0.727,-3.12 1.418,-6.227 2.078,-9.32 1.929,0.272 3.881,0.562 5.858,0.855 -0.643,3.122 -1.329,6.26 -2.041,9.409 -1.99,-0.321 -3.959,-0.636 -5.895,-0.944 m 6.352,-32.766 c 0.489,-3.245 0.921,-6.482 1.303,-9.704 1.922,0.158 3.871,0.318 5.844,0.488 -0.386,3.263 -0.831,6.536 -1.316,9.819 -1.969,-0.212 -3.916,-0.409 -5.831,-0.603 m 3.042,-31.352 c 0.131,-3.401 0.195,-6.788 0.183,-10.166 1.964,0.01 3.961,0.029 5.978,0.062 -0.006,3.427 -0.092,6.868 -0.24,10.316 -2.001,-0.082 -3.976,-0.153 -5.921,-0.212 m -0.84,-30.323 c -0.358,-3.565 -0.817,-7.113 -1.376,-10.648 2.049,-0.16 4.122,-0.316 6.229,-0.455 0.528,3.597 0.953,7.213 1.281,10.842 -2.076,0.074 -4.117,0.161 -6.134,0.261 m -5.423,-29.412 c -1.026,-3.714 -2.182,-7.4 -3.482,-11.048 2.145,-0.384 4.324,-0.757 6.544,-1.116 1.254,3.744 2.375,7.515 3.36,11.313 -2.177,0.271 -4.317,0.556 -6.422,0.851 M 533.185,212.77 c -1.905,-3.805 -3.983,-7.556 -6.237,-11.238 2.24,-0.663 4.524,-1.311 6.853,-1.953 2.218,3.808 4.26,7.68 6.121,11.6 -2.289,0.516 -4.532,1.051 -6.737,1.591 m -17.152,-26.779 c -3.029,-3.776 -6.264,-7.459 -9.714,-11.024 2.297,-1.012 4.65,-2.013 7.061,-3.001 3.435,3.728 6.651,7.57 9.646,11.5 -2.381,0.83 -4.714,1.67 -6.993,2.525 M 491.73,161.627 c -4.376,-3.552 -9.009,-6.935 -13.871,-10.144 2.264,-1.431 4.597,-2.855 7.004,-4.277 4.899,3.408 9.547,7.008 13.942,10.748 -2.424,1.217 -4.782,2.44 -7.075,3.673 m -31.983,-20.675 c -5.915,-3.023 -12.094,-5.787 -18.496,-8.306 2.067,-1.913 4.238,-3.822 6.484,-5.744 6.537,2.745 12.81,5.772 18.818,9.025 -2.354,1.669 -4.62,3.345 -6.806,5.025 m -39.546,-15.35 c -7.473,-2.102 -15.177,-3.843 -23.059,-5.245 1.646,-2.411 3.391,-4.848 5.263,-7.292 8.153,1.637 16.094,3.662 23.778,6.022 -2.092,2.187 -4.09,4.354 -5.982,6.515 m -45.889,-8.209 c -8.796,-0.729 -17.716,-1.039 -26.708,-0.886 0.93,-2.858 1.981,-5.758 3.16,-8.705 9.429,0.067 18.766,0.599 27.938,1.598 -1.576,2.698 -3.044,5.36 -4.39,7.993 m -49.563,0.489 c -9.527,0.981 -19.004,2.494 -28.349,4.511 -0.087,-3.139 -0.046,-6.366 0.141,-9.667 9.966,-1.902 20.038,-3.246 30.13,-4.047 -0.773,3.127 -1.404,6.2 -1.922,9.203 m -49.117,9.943 c -9.337,2.89 -18.386,6.301 -27.028,10.241 -1.291,-3.177 -2.472,-6.477 -3.548,-9.886 9.385,-3.991 19.173,-7.385 29.228,-10.218 0.328,3.385 0.778,6.674 1.348,9.863 m -43.709,18.786 c -8.068,4.628 -15.57,9.751 -22.387,15.286 -2.524,-2.918 -4.975,-5.995 -7.389,-9.195 7.574,-5.764 15.849,-11.062 24.701,-15.815 1.603,3.368 3.303,6.611 5.075,9.724 m -33.675,25.522 c -5.847,5.899 -10.84,12.199 -14.954,18.679 -3.597,-2.407 -7.182,-4.971 -10.769,-7.666 4.705,-6.912 10.457,-13.508 17.005,-19.733 2.868,3.048 5.782,5.951 8.718,8.72 m -20.591,29.057 c -3.008,6.544 -5.024,13.255 -6.011,19.878 -4.353,-1.747 -8.765,-3.578 -13.201,-5.58 1.42,-7.126 3.971,-14.293 7.489,-21.295 3.91,2.492 7.818,4.828 11.723,6.997 M 449.5,589.552 c 1.189,-3.506 2.367,-6.958 3.544,-10.358 3.35,1.152 6.786,2.271 10.308,3.38 -1.05,3.449 -2.094,6.956 -3.131,10.519 -3.662,-1.173 -7.243,-2.327 -10.721,-3.541 m 22.454,-62.85 c 1.187,-3.168 2.358,-6.298 3.523,-9.385 2.656,0.86 5.384,1.685 8.17,2.518 -1.073,3.126 -2.15,6.295 -3.23,9.505 -2.881,-0.884 -5.707,-1.75 -8.463,-2.638 m 18.936,-49.919 c 1.148,-3.008 2.279,-5.984 3.398,-8.928 2.247,0.656 4.545,1.311 6.889,1.953 -1.054,2.975 -2.118,5.981 -3.197,9.024 -2.413,-0.68 -4.774,-1.365 -7.09,-2.049 m 15.788,-42.197 c 1.071,-2.956 2.123,-5.888 3.155,-8.794 2.003,0.497 4.045,1.009 6.128,1.519 -0.988,2.937 -1.995,5.896 -3.022,8.885 -2.128,-0.529 -4.215,-1.071 -6.261,-1.61 m 12.78,-37.337 c 0.946,-2.977 1.863,-5.936 2.752,-8.875 1.866,0.381 3.77,0.765 5.702,1.149 -0.863,2.97 -1.75,5.96 -2.669,8.967 -1.966,-0.41 -3.893,-0.823 -5.785,-1.241 m 9.726,-34.155 c 0.754,-3.056 1.478,-6.096 2.15,-9.12 1.806,0.259 3.644,0.528 5.516,0.793 -0.663,3.057 -1.374,6.128 -2.118,9.215 -1.882,-0.295 -3.733,-0.596 -5.548,-0.888 m 6.476,-32.026 c 0.484,-3.164 0.91,-6.319 1.284,-9.459 1.799,0.132 3.635,0.267 5.5,0.411 -0.376,3.18 -0.809,6.373 -1.29,9.576 -1.863,-0.182 -3.695,-0.358 -5.494,-0.528 m 2.875,-30.512 c 0.106,-3.299 0.133,-6.584 0.081,-9.856 1.838,-0.015 3.71,-0.026 5.616,-0.033 0.033,3.323 -0.01,6.661 -0.126,10.009 -1.891,-0.046 -3.747,-0.085 -5.571,-0.12 m -1.209,-29.32 c -0.41,-3.432 -0.925,-6.844 -1.544,-10.232 1.903,-0.196 3.839,-0.388 5.815,-0.569 0.591,3.459 1.079,6.938 1.466,10.434 -1.95,0.115 -3.863,0.241 -5.737,0.367 m -5.917,-28.176 c -1.088,-3.535 -2.309,-7.041 -3.673,-10.497 1.971,-0.417 3.983,-0.828 6.039,-1.232 1.331,3.55 2.53,7.144 3.592,10.766 -2.026,0.314 -4.013,0.632 -5.958,0.963 m -11.32,-26.8 c -1.962,-3.572 -4.094,-7.079 -6.396,-10.509 2.023,-0.692 4.094,-1.376 6.222,-2.054 2.284,3.548 4.397,7.175 6.333,10.856 -2.102,0.562 -4.156,1.132 -6.159,1.707 m -17.454,-24.889 c -3.04,-3.472 -6.286,-6.836 -9.723,-10.075 2.018,-1.025 4.1,-2.046 6.251,-3.059 3.452,3.39 6.696,6.91 9.738,10.526 -2.146,0.867 -4.237,1.734 -6.266,2.608 M 478.47,169.283 c -4.305,-3.167 -8.835,-6.159 -13.569,-8.972 1.915,-1.409 3.91,-2.819 5.977,-4.237 4.808,2.99 9.391,6.178 13.742,9.52 -2.121,1.229 -4.173,2.46 -6.15,3.689 m -31.074,-18.07 c -5.679,-2.567 -11.568,-4.888 -17.652,-6.952 1.647,-1.83 3.388,-3.679 5.219,-5.536 6.25,2.263 12.287,4.806 18.086,7.578 -1.969,1.645 -3.857,3.28 -5.653,4.91 m -37.483,-12.582 c -6.985,-1.615 -14.139,-2.908 -21.424,-3.86 1.152,-2.244 2.416,-4.516 3.794,-6.816 7.581,1.147 15.007,2.649 22.236,4.489 -1.643,2.078 -3.178,4.143 -4.606,6.187 m -42.338,-5.618 c -7.988,-0.301 -16.038,-0.217 -24.099,0.285 0.41,-2.568 0.948,-5.194 1.595,-7.877 8.508,-0.358 16.981,-0.278 25.359,0.23 -1.065,2.497 -2.022,4.953 -2.855,7.362 m -44.41,2.445 c -8.39,1.255 -16.676,2.959 -24.785,5.124 -0.555,-2.726 -0.984,-5.547 -1.317,-8.452 8.694,-2.11 17.545,-3.742 26.477,-4.884 -0.24,2.804 -0.369,5.547 -0.375,8.212 m -42.639,10.73 c -7.947,2.895 -15.594,6.217 -22.822,9.991 -1.637,-2.657 -3.175,-5.449 -4.661,-8.339 7.89,-3.867 16.19,-7.247 24.792,-10.153 0.791,2.936 1.687,5.772 2.691,8.501 m -36.631,18.052 c -6.607,4.309 -12.702,8.988 -18.121,14.029 -2.685,-2.357 -5.344,-4.839 -7.966,-7.455 6.079,-5.264 12.8,-10.192 20.089,-14.657 1.939,2.819 3.942,5.512 5.998,8.083 m -27.001,23.24 c -4.519,5.282 -8.331,10.828 -11.295,16.518 -3.563,-1.857 -7.154,-3.817 -10.745,-5.92 3.458,-6.085 7.848,-11.965 12.964,-17.556 3.007,2.453 6.029,4.78 9.076,6.958 m -15.249,25.576 c -2.034,5.684 -3.174,11.476 -3.458,17.129 -4.176,-1.213 -8.404,-2.526 -12.662,-3.998 0.593,-6.108 2.139,-12.332 4.606,-18.424 3.864,1.884 7.702,3.65 11.514,5.293 m 228.318,369.06 c 1.43,-3.387 2.859,-6.719 4.266,-10.006 2.926,1.231 5.951,2.437 9.079,3.611 -1.299,3.342 -2.606,6.737 -3.922,10.187 -3.244,-1.236 -6.387,-2.497 -9.423,-3.792 m 26.443,-60.899 c 1.359,-3.083 2.698,-6.125 4.028,-9.131 2.353,0.91 4.787,1.778 7.284,2.651 -1.245,3.051 -2.507,6.137 -3.782,9.263 -2.585,-0.911 -5.1,-1.834 -7.53,-2.783 m 21.353,-48.652 c 1.268,-2.937 2.522,-5.843 3.749,-8.72 2.011,0.691 4.081,1.367 6.208,2.028 -1.181,2.912 -2.372,5.854 -3.583,8.826 -2.186,-0.697 -4.309,-1.413 -6.374,-2.134 m 17.257,-41.262 c 1.157,-2.894 2.284,-5.765 3.391,-8.611 1.804,0.523 3.659,1.046 5.557,1.564 -1.069,2.876 -2.158,5.781 -3.275,8.705 -1.942,-0.547 -3.832,-1.098 -5.673,-1.658 m 13.628,-36.559 c 0.996,-2.915 1.958,-5.813 2.887,-8.693 1.693,0.393 3.429,0.779 5.204,1.168 -0.91,2.912 -1.852,5.841 -2.823,8.787 -1.801,-0.417 -3.559,-0.833 -5.268,-1.262 m 10.137,-33.434 c 0.776,-2.986 1.508,-5.957 2.201,-8.914 1.642,0.264 3.324,0.537 5.047,0.793 -0.678,2.992 -1.408,5.995 -2.175,9.017 -1.732,-0.291 -3.421,-0.589 -5.073,-0.896 m 6.573,-31.276 c 0.476,-3.086 0.899,-6.156 1.259,-9.215 1.641,0.133 3.322,0.268 5.041,0.394 -0.367,3.1 -0.795,6.214 -1.271,9.338 -1.717,-0.175 -3.392,-0.337 -5.029,-0.517 m 2.748,-29.676 c 0.074,-3.199 0.079,-6.379 -0.005,-9.545 1.671,-0.017 3.377,-0.037 5.131,-0.056 0.066,3.216 0.053,6.453 -0.037,9.701 -1.739,-0.033 -3.435,-0.063 -5.089,-0.1 m -1.491,-28.335 c -0.449,-3.299 -1.001,-6.58 -1.66,-9.831 1.712,-0.2 3.472,-0.397 5.274,-0.596 0.639,3.318 1.175,6.668 1.605,10.034 -1.782,0.133 -3.522,0.265 -5.219,0.393 m -6.241,-26.984 c -1.129,-3.368 -2.391,-6.695 -3.791,-9.971 1.756,-0.417 3.56,-0.834 5.414,-1.253 1.383,3.369 2.628,6.785 3.742,10.233 -1.838,0.334 -3.622,0.662 -5.365,0.991 m -11.578,-25.352 c -1.981,-3.348 -4.128,-6.63 -6.437,-9.826 1.765,-0.68 3.592,-1.357 5.475,-2.043 2.308,3.311 4.453,6.703 6.43,10.161 -1.874,0.573 -3.698,1.141 -5.468,1.708 m -17.454,-23.144 c -3.01,-3.196 -6.211,-6.272 -9.586,-9.22 1.714,-0.992 3.493,-1.986 5.346,-2.986 3.416,3.09 6.64,6.31 9.673,9.642 -1.874,0.858 -3.685,1.712 -5.433,2.564 M 467.66,176.479 c -4.172,-2.829 -8.547,-5.481 -13.096,-7.952 1.552,-1.337 3.182,-2.687 4.893,-4.051 4.65,2.633 9.103,5.459 13.349,8.449 -1.784,1.193 -3.503,2.376 -5.146,3.554 m -29.809,-15.842 c -5.382,-2.189 -10.943,-4.145 -16.658,-5.84 1.226,-1.697 2.544,-3.421 3.959,-5.163 5.904,1.868 11.638,4 17.17,6.372 -1.58,1.554 -3.067,3.106 -4.471,4.631 m -35.147,-10.348 c -6.46,-1.246 -13.049,-2.174 -19.724,-2.794 0.694,-2.023 1.498,-4.093 2.412,-6.191 6.981,0.765 13.858,1.87 20.584,3.291 -1.194,1.926 -2.283,3.828 -3.272,5.694 m -38.725,-3.682 c -7.197,-0.011 -14.415,0.337 -21.597,1.068 -0.041,-2.246 0.038,-4.565 0.209,-6.946 7.618,-0.626 15.249,-0.869 22.84,-0.715 -0.589,2.249 -1.077,4.448 -1.452,6.593 m -39.546,3.67 c -7.348,1.395 -14.56,3.191 -21.569,5.369 -0.939,-2.305 -1.788,-4.712 -2.529,-7.218 7.548,-2.178 15.283,-3.954 23.144,-5.286 0.213,2.457 0.54,4.837 0.954,7.135 m -36.871,10.885 c -6.762,2.77 -13.192,5.954 -19.226,9.481 -1.89,-2.173 -3.753,-4.443 -5.51,-6.863 6.624,-3.631 13.636,-6.907 20.964,-9.768 1.18,2.487 2.434,4.877 3.772,7.15 m -30.64,16.927 c -5.41,3.943 -10.311,8.207 -14.633,12.711 -2.798,-1.833 -5.577,-3.79 -8.333,-5.874 4.851,-4.766 10.317,-9.25 16.3,-13.381 2.186,2.297 4.397,4.493 6.666,6.544 m -21.592,20.914 c -3.507,4.663 -6.305,9.568 -8.421,14.519 -3.52,-1.332 -7.051,-2.814 -10.609,-4.385 2.508,-5.318 5.8,-10.533 9.779,-15.507 3.077,1.921 6.169,3.697 9.251,5.373 m -11.093,22.386 c -1.275,4.934 -1.781,9.912 -1.543,14.727 -3.988,-0.763 -8.029,-1.631 -12.11,-2.631 -0.005,-5.221 0.84,-10.586 2.437,-15.898 3.763,1.391 7.503,2.657 11.216,3.802 m 189.646,352.985 c 1.632,-3.254 3.239,-6.462 4.822,-9.63 2.449,1.329 5.011,2.624 7.682,3.89 -1.501,3.226 -3.017,6.506 -4.554,9.827 -2.761,-1.341 -5.426,-2.675 -7.95,-4.087 m 29.539,-58.823 c 1.501,-2.99 2.969,-5.945 4.425,-8.862 2.005,0.968 4.093,1.907 6.256,2.843 -1.392,2.966 -2.802,5.966 -4.23,9.003 -2.239,-0.966 -4.393,-1.954 -6.451,-2.984 m 23.248,-47.315 c 1.366,-2.865 2.712,-5.699 4.032,-8.506 1.729,0.737 3.527,1.463 5.387,2.166 -1.277,2.844 -2.581,5.715 -3.895,8.62 -1.911,-0.739 -3.755,-1.492 -5.524,-2.28 m 18.41,-40.288 c 1.222,-2.828 2.413,-5.634 3.576,-8.421 1.566,0.574 3.193,1.12 4.871,1.667 -1.135,2.817 -2.297,5.657 -3.486,8.519 -1.709,-0.581 -3.366,-1.162 -4.961,-1.765 m 14.285,-35.76 c 1.032,-2.853 2.033,-5.686 2.995,-8.503 1.482,0.432 3.012,0.842 4.59,1.246 -0.947,2.85 -1.926,5.717 -2.943,8.604 -1.598,-0.442 -3.148,-0.884 -4.642,-1.347 m 10.451,-32.697 c 0.788,-2.92 1.541,-5.821 2.24,-8.71 1.444,0.298 2.936,0.569 4.471,0.855 -0.693,2.924 -1.436,5.863 -2.217,8.816 -1.548,-0.304 -3.044,-0.63 -4.494,-0.961 m 6.634,-30.53 c 0.477,-3.004 0.896,-5.995 1.245,-8.975 1.445,0.158 2.937,0.305 4.474,0.449 -0.36,3.017 -0.779,6.052 -1.254,9.098 -1.53,-0.181 -3.02,-0.367 -4.465,-0.572 m 2.647,-28.854 c 0.06,-3.098 0.043,-6.182 -0.062,-9.246 1.468,0.002 2.984,0.002 4.543,-0.008 0.09,3.119 0.101,6.252 0.031,9.405 -1.549,-0.042 -3.054,-0.093 -4.512,-0.151 m -1.681,-27.381 c -0.473,-3.178 -1.048,-6.332 -1.73,-9.453 1.496,-0.173 3.04,-0.353 4.637,-0.544 0.67,3.192 1.235,6.41 1.698,9.652 -1.583,0.123 -3.115,0.237 -4.605,0.345 m -6.426,-25.86 c -1.148,-3.207 -2.426,-6.371 -3.834,-9.48 1.512,-0.385 3.078,-0.779 4.699,-1.175 1.403,3.195 2.678,6.441 3.82,9.731 -1.614,0.316 -3.175,0.625 -4.685,0.924 m -11.634,-24.009 c -1.974,-3.149 -4.102,-6.221 -6.384,-9.207 1.49,-0.633 3.042,-1.274 4.654,-1.925 2.297,3.093 4.442,6.273 6.422,9.523 -1.619,0.542 -3.182,1.081 -4.692,1.609 m -17.21,-21.576 c -2.944,-2.943 -6.059,-5.771 -9.335,-8.468 1.395,-0.913 2.857,-1.842 4.392,-2.786 3.334,2.827 6.501,5.778 9.481,8.849 -1.579,0.811 -3.094,1.611 -4.538,2.405 m -22.927,-18.296 c -4.002,-2.539 -8.176,-4.912 -12.51,-7.091 1.183,-1.226 2.453,-2.464 3.8,-3.728 4.448,2.328 8.733,4.835 12.827,7.521 -1.444,1.115 -2.823,2.212 -4.117,3.298 m -28.312,-13.982 c -5.053,-1.884 -10.253,-3.542 -15.577,-4.952 0.822,-1.52 1.736,-3.076 2.743,-4.66 5.527,1.556 10.919,3.352 16.148,5.386 -1.195,1.433 -2.3,2.841 -3.314,4.226 m -32.683,-8.586 c -5.937,-0.966 -11.958,-1.633 -18.035,-2.015 0.285,-1.77 0.662,-3.592 1.147,-5.463 6.385,0.49 12.697,1.3 18.908,2.392 -0.771,1.732 -1.44,3.432 -2.02,5.086 m -35.201,-2.306 c -6.456,0.176 -12.89,0.705 -19.269,1.544 -0.435,-1.905 -0.748,-3.895 -0.988,-5.959 6.785,-0.792 13.623,-1.24 20.455,-1.326 -0.162,1.974 -0.242,3.893 -0.198,5.741 m -35.075,4.351 c -6.42,1.429 -12.681,3.224 -18.734,5.335 -1.248,-1.892 -2.404,-3.901 -3.51,-5.993 6.535,-2.154 13.278,-3.953 20.168,-5.379 0.601,2.098 1.299,4.113 2.076,6.037 m -31.83,10.6 c -5.728,2.632 -11.139,5.589 -16.185,8.807 -2.096,-1.702 -4.144,-3.529 -6.139,-5.479 5.549,-3.364 11.461,-6.456 17.704,-9.173 1.482,2.052 3.013,4.013 4.62,5.845 m -25.618,15.59 c -4.429,3.557 -8.375,7.388 -11.802,11.39 -2.849,-1.358 -5.696,-2.844 -8.531,-4.445 3.864,-4.264 8.289,-8.322 13.205,-12.073 2.346,1.826 4.725,3.539 7.128,5.128 m -17.225,18.65 c -2.658,4.122 -4.755,8.389 -6.174,12.693 -3.442,-0.889 -6.905,-1.898 -10.393,-3.031 1.765,-4.631 4.189,-9.232 7.278,-13.624 3.103,1.437 6.199,2.762 9.289,3.962 m -7.864,19.506 c -0.708,4.264 -0.756,8.54 -0.112,12.628 -3.803,-0.395 -7.657,-0.868 -11.566,-1.437 -0.45,-4.453 -0.172,-9.083 0.806,-13.688 3.658,0.942 7.285,1.772 10.872,2.497 M 401.287,566.28 c 1.765,-3.122 3.508,-6.2 5.224,-9.238 1.931,1.433 3.986,2.837 6.163,4.204 -1.655,3.108 -3.323,6.261 -5.028,9.451 -2.248,-1.434 -4.371,-2.905 -6.359,-4.417 m 31.778,-56.655 c 1.6,-2.891 3.171,-5.75 4.717,-8.579 1.613,1.054 3.315,2.083 5.114,3.078 -1.499,2.879 -3.023,5.789 -4.573,8.733 -1.848,-1.049 -3.602,-2.126 -5.258,-3.232 M 457.7,463.704 c 1.439,-2.787 2.859,-5.544 4.238,-8.281 1.414,0.811 2.908,1.59 4.468,2.352 -1.354,2.774 -2.735,5.574 -4.135,8.403 -1.603,-0.792 -3.125,-1.625 -4.571,-2.474 m 19.252,-39.28 c 1.264,-2.764 2.51,-5.502 3.709,-8.224 1.297,0.63 2.662,1.234 4.09,1.822 -1.189,2.751 -2.397,5.531 -3.643,8.329 -1.454,-0.62 -2.838,-1.26 -4.156,-1.927 m 14.753,-34.944 c 1.065,-2.786 2.082,-5.561 3.072,-8.313 1.237,0.486 2.534,0.947 3.89,1.381 -0.979,2.789 -1.987,5.595 -3.035,8.417 -1.368,-0.47 -2.678,-0.968 -3.927,-1.485 m 10.661,-31.959 c 0.806,-2.848 1.555,-5.687 2.263,-8.51 1.22,0.346 2.491,0.67 3.815,0.98 -0.704,2.858 -1.458,5.729 -2.254,8.614 -1.327,-0.333 -2.6,-0.711 -3.824,-1.084 m 6.669,-29.789 c 0.477,-2.928 0.878,-5.843 1.226,-8.743 1.225,0.208 2.499,0.393 3.821,0.567 -0.35,2.941 -0.765,5.895 -1.232,8.866 -1.323,-0.216 -2.594,-0.445 -3.815,-0.69 m 2.561,-28.058 c 0.045,-3.008 0.015,-5.995 -0.097,-8.964 1.239,0.054 2.533,0.09 3.873,0.113 0.109,3.021 0.131,6.062 0.08,9.118 -1.336,-0.08 -2.622,-0.16 -3.856,-0.267 m -1.799,-26.484 c -0.487,-3.06 -1.075,-6.091 -1.767,-9.092 1.258,-0.12 2.564,-0.255 3.927,-0.404 0.689,3.061 1.272,6.16 1.751,9.283 -1.354,0.086 -2.655,0.158 -3.911,0.213 m -6.492,-24.806 c -1.151,-3.061 -2.424,-6.076 -3.824,-9.034 1.251,-0.32 2.559,-0.658 3.922,-1.006 1.409,3.038 2.686,6.131 3.837,9.271 -1.368,0.271 -2.677,0.527 -3.935,0.769 m -11.529,-22.79 c -1.941,-2.967 -4.032,-5.854 -6.26,-8.654 1.198,-0.553 2.46,-1.122 3.785,-1.702 2.261,2.895 4.377,5.884 6.34,8.944 -1.351,0.486 -2.637,0.959 -3.865,1.412 m -16.787,-20.187 c -2.846,-2.727 -5.849,-5.337 -9.002,-7.815 1.075,-0.809 2.214,-1.632 3.425,-2.478 3.22,2.592 6.29,5.314 9.191,8.154 -1.273,0.73 -2.476,1.446 -3.614,2.139 m -21.992,-16.786 c -3.803,-2.3 -7.761,-4.427 -11.851,-6.38 0.833,-1.066 1.746,-2.164 2.729,-3.288 4.223,2.066 8.3,4.319 12.213,6.745 -1.106,0.997 -2.138,1.97 -3.091,2.923 m -26.682,-12.463 c -4.714,-1.639 -9.548,-3.057 -14.478,-4.254 0.446,-1.31 0.976,-2.668 1.608,-4.054 5.142,1.307 10.174,2.843 15.074,4.603 -0.826,1.264 -1.553,2.503 -2.204,3.705 m -30.219,-7.24 c -5.423,-0.754 -10.907,-1.246 -16.412,-1.464 -0.097,-1.49 -0.093,-3.043 0.014,-4.651 5.808,0.3 11.578,0.881 17.276,1.735 -0.388,1.506 -0.678,2.968 -0.878,4.38 m -31.872,-1.372 c -5.771,0.301 -11.5,0.898 -17.148,1.784 -0.745,-1.562 -1.428,-3.206 -2.005,-4.938 6.031,-0.869 12.134,-1.43 18.264,-1.682 0.197,1.685 0.505,3.296 0.889,4.836 m -31.049,4.618 c -5.606,1.412 -11.043,3.124 -16.266,5.12 -1.483,-1.501 -2.912,-3.103 -4.286,-4.801 5.655,-2.064 11.522,-3.824 17.554,-5.253 0.92,1.736 1.918,3.389 2.998,4.934 m -27.48,10.03 c -4.87,2.425 -9.437,5.116 -13.639,8.055 -2.226,-1.27 -4.42,-2.675 -6.58,-4.186 4.632,-3.099 9.644,-5.931 14.957,-8.467 1.709,1.638 3.464,3.175 5.262,4.598 m -21.44,14.164 c -3.623,3.182 -6.811,6.584 -9.512,10.128 -2.855,-0.95 -5.721,-1.999 -8.593,-3.155 3.063,-3.791 6.665,-7.393 10.685,-10.8 2.453,1.395 4.934,2.66 7.42,3.827 m -13.715,16.505 c -2.014,3.616 -3.525,7.338 -4.422,11.061 -3.334,-0.514 -6.709,-1.108 -10.108,-1.827 1.188,-4.022 2.948,-8.052 5.314,-11.919 3.087,1.001 6.159,1.91 9.216,2.685 m -5.356,16.934 c -0.286,3.68 0.062,7.337 0.942,10.799 -3.617,-0.03 -7.293,-0.172 -11.018,-0.38 -0.753,-3.789 -0.916,-7.771 -0.414,-11.757 3.536,0.557 7.036,0.987 10.49,1.338 m 126.882,328.016 c 1.847,-2.986 3.684,-5.923 5.479,-8.833 1.413,1.539 2.937,3.06 4.597,4.537 -1.763,2.98 -3.547,5.999 -5.355,9.06 -1.711,-1.549 -3.295,-3.132 -4.721,-4.764 m 33.236,-54.426 c 1.66,-2.793 3.298,-5.555 4.91,-8.287 1.207,1.143 2.503,2.272 3.909,3.349 -1.577,2.786 -3.182,5.604 -4.812,8.451 -1.437,-1.14 -2.786,-2.303 -4.007,-3.513 m 25.552,-44.488 c 1.488,-2.707 2.948,-5.388 4.374,-8.05 1.078,0.888 2.241,1.749 3.484,2.583 -1.41,2.7 -2.843,5.427 -4.305,8.179 -1.273,-0.868 -2.454,-1.782 -3.553,-2.712 m 19.798,-38.249 c 1.302,-2.693 2.562,-5.369 3.794,-8.026 1.014,0.7 2.089,1.381 3.242,2.025 -1.221,2.692 -2.464,5.408 -3.752,8.136 -1.166,-0.687 -2.263,-1.397 -3.284,-2.135 m 15.044,-34.121 c 1.082,-2.72 2.115,-5.432 3.113,-8.123 0.981,0.544 2.022,1.071 3.124,1.572 -0.996,2.725 -2.023,5.471 -3.092,8.23 -1.112,-0.534 -2.166,-1.089 -3.145,-1.679 m 10.771,-31.225 c 0.807,-2.784 1.56,-5.556 2.273,-8.307 0.971,0.412 2.001,0.8 3.09,1.158 -0.713,2.792 -1.467,5.598 -2.269,8.42 -1.091,-0.401 -2.123,-0.82 -3.094,-1.271 m 6.66,-29.072 c 0.468,-2.852 0.864,-5.69 1.208,-8.513 0.983,0.271 2.022,0.523 3.113,0.748 -0.342,2.863 -0.752,5.744 -1.219,8.637 -1.088,-0.266 -2.124,-0.557 -3.102,-0.872 m 2.492,-27.297 c 0.038,-2.915 0,-5.815 -0.122,-8.69 0.996,0.124 2.046,0.224 3.149,0.303 0.123,2.929 0.155,5.879 0.112,8.844 -1.1,-0.127 -2.147,-0.28 -3.139,-0.457 m -1.866,-25.632 c -0.487,-2.954 -1.082,-5.878 -1.773,-8.764 1.002,-0.041 2.061,-0.107 3.173,-0.19 0.692,2.947 1.286,5.931 1.771,8.94 -1.108,0.029 -2.166,0.036 -3.171,0.014 m -6.468,-23.846 c -1.136,-2.929 -2.391,-5.81 -3.77,-8.627 0.985,-0.23 2.02,-0.485 3.113,-0.758 1.395,2.894 2.66,5.849 3.805,8.85 -1.104,0.199 -2.152,0.379 -3.148,0.535 m -11.31,-21.696 c -1.887,-2.81 -3.915,-5.534 -6.078,-8.17 0.909,-0.442 1.878,-0.904 2.91,-1.391 2.2,2.725 4.263,5.538 6.184,8.431 -1.062,0.4 -2.067,0.778 -3.016,1.13 m -16.226,-18.978 c -2.733,-2.544 -5.605,-4.967 -8.613,-7.264 0.756,-0.667 1.578,-1.361 2.468,-2.077 3.087,2.397 6.042,4.918 8.835,7.563 -0.961,0.616 -1.859,1.208 -2.69,1.778 M 448.8,193.265 c -3.596,-2.101 -7.323,-4.034 -11.164,-5.798 0.498,-0.888 1.062,-1.815 1.718,-2.765 3.978,1.863 7.834,3.9 11.543,6.106 -0.77,0.848 -1.472,1.667 -2.097,2.457 m -25.016,-11.246 c -4.375,-1.452 -8.849,-2.693 -13.398,-3.725 0.1,-1.078 0.292,-2.202 0.575,-3.373 4.758,1.118 9.432,2.45 13.995,3.999 -0.478,1.065 -0.871,2.103 -1.172,3.099 m -27.832,-6.239 c -4.944,-0.614 -9.925,-0.978 -14.905,-1.103 -0.408,-1.194 -0.727,-2.466 -0.967,-3.798 5.267,0.165 10.52,0.602 15.729,1.282 -0.041,1.263 0.012,2.471 0.143,3.619 m -28.806,-0.798 c -5.158,0.355 -10.256,0.966 -15.257,1.855 -1.007,-1.219 -1.964,-2.525 -2.836,-3.918 5.348,-0.896 10.789,-1.505 16.276,-1.835 0.528,1.378 1.135,2.68 1.817,3.898 m -27.489,4.594 c -4.898,1.329 -9.625,2.939 -14.142,4.783 -1.672,-1.105 -3.299,-2.334 -4.879,-3.657 4.896,-1.928 10.01,-3.582 15.283,-4.984 1.189,1.381 2.441,2.666 3.738,3.858 m -23.761,9.286 c -4.145,2.203 -8.006,4.635 -11.526,7.272 -2.297,-0.893 -4.593,-1.874 -6.861,-2.988 3.89,-2.793 8.122,-5.378 12.652,-7.71 1.883,1.245 3.789,2.399 5.735,3.426 m -17.987,12.726 c -2.972,2.819 -5.541,5.829 -7.665,8.94 -2.836,-0.548 -5.686,-1.215 -8.552,-1.978 2.432,-3.345 5.327,-6.567 8.645,-9.59 2.517,0.984 5.047,1.865 7.572,2.628 m -10.898,14.527 c -1.533,3.141 -2.536,6.387 -3.061,9.59 -3.221,-0.153 -6.482,-0.413 -9.779,-0.751 0.715,-3.48 2.017,-6.973 3.775,-10.383 3.044,0.624 6.069,1.125 9.065,1.544 m -3.42,14.642 c 0.043,3.163 0.642,6.279 1.713,9.201 -3.435,0.272 -6.93,0.451 -10.477,0.559 -0.974,-3.211 -1.424,-6.62 -1.316,-10.061 3.403,0.193 6.764,0.293 10.08,0.301 m 102.426,318.228 c 1.891,-2.852 3.774,-5.652 5.614,-8.431 0.865,1.665 1.858,3.311 3.033,4.885 -1.822,2.853 -3.673,5.741 -5.552,8.662 -1.189,-1.659 -2.219,-3.374 -3.095,-5.116 m 34.008,-52.18 c 1.701,-2.69 3.365,-5.361 5.011,-7.994 0.781,1.25 1.679,2.47 2.686,3.65 -1.636,2.69 -3.281,5.415 -4.964,8.164 -1.027,-1.237 -1.951,-2.508 -2.733,-3.82 m 26.041,-43.035 c 1.51,-2.63 2.99,-5.237 4.443,-7.821 0.723,0.988 1.548,1.944 2.469,2.854 -1.443,2.628 -2.912,5.277 -4.408,7.953 -0.924,-0.968 -1.769,-1.958 -2.504,-2.986 m 20.079,-37.212 c 1.315,-2.623 2.586,-5.235 3.834,-7.823 0.7,0.792 1.492,1.549 2.355,2.273 -1.241,2.627 -2.51,5.276 -3.817,7.94 -0.87,-0.767 -1.658,-1.569 -2.372,-2.39 m 15.168,-33.293 c 1.085,-2.659 2.126,-5.304 3.125,-7.934 0.698,0.636 1.477,1.234 2.316,1.807 -1,2.664 -2.037,5.347 -3.119,8.042 -0.844,-0.608 -1.614,-1.251 -2.322,-1.915 m 10.79,-30.502 c 0.8,-2.721 1.553,-5.423 2.257,-8.116 0.711,0.499 1.495,0.957 2.332,1.395 -0.709,2.726 -1.463,5.466 -2.269,8.223 -0.844,-0.465 -1.614,-0.97 -2.32,-1.502 m 6.603,-28.375 c 0.459,-2.784 0.858,-5.553 1.19,-8.303 0.727,0.363 1.522,0.687 2.37,0.988 -0.337,2.791 -0.739,5.599 -1.203,8.421 -0.845,-0.341 -1.633,-0.703 -2.357,-1.106 m 2.426,-26.58 c 0.028,-2.833 -0.013,-5.651 -0.14,-8.442 0.743,0.218 1.544,0.401 2.403,0.559 0.125,2.841 0.168,5.705 0.13,8.585 -0.854,-0.205 -1.655,-0.434 -2.393,-0.702 m -1.889,-24.852 c -0.487,-2.854 -1.074,-5.678 -1.763,-8.465 0.746,0.065 1.543,0.092 2.398,0.092 0.691,2.842 1.282,5.723 1.769,8.634 -0.854,-0.061 -1.66,-0.142 -2.404,-0.261 M 492.86,249.98 c -1.11,-2.812 -2.34,-5.569 -3.684,-8.267 0.713,-0.11 1.475,-0.259 2.298,-0.431 1.365,2.766 2.614,5.594 3.737,8.472 -0.84,0.105 -1.623,0.183 -2.351,0.226 m -11.005,-20.733 c -1.825,-2.664 -3.785,-5.251 -5.865,-7.749 0.624,-0.301 1.303,-0.64 2.044,-0.998 2.125,2.571 4.126,5.236 5.991,7.983 -0.781,0.284 -1.503,0.541 -2.17,0.764 m -15.594,-17.938 c -2.605,-2.388 -5.344,-4.661 -8.199,-6.802 0.453,-0.502 0.972,-1.038 1.558,-1.597 2.943,2.229 5.76,4.585 8.438,7.059 -0.66,0.473 -1.259,0.922 -1.797,1.34 M 446.396,196.84 c -3.377,-1.941 -6.875,-3.722 -10.473,-5.337 0.181,-0.684 0.437,-1.411 0.781,-2.167 3.735,1.692 7.361,3.56 10.863,5.585 -0.462,0.671 -0.856,1.31 -1.171,1.919 m -23.37,-10.291 c -4.05,-1.306 -8.183,-2.422 -12.372,-3.334 -0.204,-0.821 -0.311,-1.709 -0.347,-2.648 4.391,0.975 8.717,2.161 12.954,3.545 -0.157,0.858 -0.241,1.674 -0.235,2.437 m -25.592,-5.526 c -4.504,-0.523 -9.024,-0.816 -13.533,-0.881 -0.673,-0.895 -1.279,-1.873 -1.8,-2.926 4.772,0.094 9.553,0.427 14.302,0.991 0.262,1.005 0.608,1.948 1.031,2.816 m -26.038,-0.486 c -4.607,0.364 -9.147,0.974 -13.587,1.798 -1.224,-0.873 -2.394,-1.855 -3.51,-2.917 4.751,-0.869 9.601,-1.494 14.514,-1.845 0.792,1.075 1.654,2.071 2.583,2.964 m -24.374,4.354 c -4.288,1.244 -8.414,2.702 -12.329,4.383 -1.797,-0.754 -3.573,-1.614 -5.317,-2.572 4.248,-1.776 8.706,-3.322 13.332,-4.621 1.392,1.041 2.834,1.977 4.314,2.81 m -20.613,8.452 c -3.543,1.97 -6.812,4.153 -9.771,6.499 -2.336,-0.528 -4.682,-1.148 -7.02,-1.878 3.263,-2.519 6.861,-4.838 10.735,-6.942 2,0.874 4.02,1.656 6.056,2.321 m -15.144,11.326 c -2.438,2.493 -4.509,5.133 -6.18,7.85 -2.783,-0.207 -5.596,-0.516 -8.43,-0.91 1.919,-2.936 4.268,-5.779 6.991,-8.465 2.549,0.608 5.091,1.114 7.619,1.525 m -8.652,12.716 c -1.112,2.731 -1.803,5.532 -2.001,8.28 -3.094,0.171 -6.237,0.246 -9.42,0.228 0.379,-3 1.239,-6.049 2.575,-9.015 2.98,0.26 5.929,0.436 8.846,0.507 m -1.93,12.609 c 0.291,2.709 1.048,5.367 2.271,7.803 -3.26,0.542 -6.576,1.015 -9.947,1.413 -1.129,-2.712 -1.812,-5.619 -1.979,-8.582 3.268,-0.117 6.485,-0.344 9.655,-0.634 m 39.197,369.444 c 1.109,-1.516 2.21,-3.021 3.303,-4.515 0.199,1.509 0.457,3.016 0.791,4.515 z m 42.985,-59.626 c 1.912,-2.704 3.793,-5.383 5.642,-8.032 0.367,1.768 0.872,3.519 1.524,5.235 -1.855,2.72 -3.735,5.476 -5.637,8.266 -0.656,-1.797 -1.173,-3.624 -1.529,-5.469 m 34.198,-49.949 c 1.708,-2.589 3.389,-5.155 5.034,-7.699 0.376,1.348 0.865,2.68 1.479,3.973 -1.646,2.6 -3.328,5.221 -5.032,7.873 -0.614,-1.352 -1.116,-2.739 -1.481,-4.147 m 26.166,-41.584 c 1.513,-2.549 3.003,-5.073 4.455,-7.586 0.385,1.077 0.865,2.133 1.449,3.153 -1.462,2.549 -2.942,5.127 -4.453,7.724 -0.59,-1.066 -1.061,-2.172 -1.451,-3.291 m 20.12,-36.172 c 1.307,-2.56 2.593,-5.096 3.835,-7.622 0.399,0.878 0.888,1.733 1.455,2.559 -1.245,2.563 -2.521,5.144 -3.838,7.743 -0.576,-0.86 -1.064,-1.757 -1.452,-2.68 m 15.144,-32.477 c 1.078,-2.597 2.114,-5.18 3.111,-7.749 0.417,0.727 0.918,1.424 1.495,2.088 -1.005,2.602 -2.038,5.225 -3.12,7.857 -0.576,-0.7 -1.069,-1.438 -1.486,-2.196 m 10.713,-29.799 c 0.797,-2.654 1.544,-5.298 2.237,-7.929 0.443,0.592 0.964,1.152 1.554,1.676 -0.701,2.664 -1.453,5.344 -2.254,8.036 -0.584,-0.562 -1.101,-1.157 -1.537,-1.783 m 6.516,-27.713 c 0.453,-2.715 0.838,-5.417 1.164,-8.099 0.468,0.461 1.009,0.891 1.61,1.279 -0.324,2.723 -0.724,5.46 -1.179,8.216 -0.599,-0.429 -1.133,-0.896 -1.595,-1.396 m 2.348,-25.904 c 0.029,-2.76 -0.023,-5.498 -0.152,-8.213 0.485,0.326 1.039,0.619 1.649,0.87 0.131,2.759 0.171,5.543 0.146,8.347 -0.609,-0.298 -1.163,-0.632 -1.643,-1.004 m -1.897,-24.14 c -0.485,-2.763 -1.061,-5.495 -1.733,-8.191 0.483,0.19 1.029,0.327 1.625,0.433 0.683,2.747 1.269,5.531 1.752,8.35 -0.605,-0.158 -1.161,-0.348 -1.644,-0.592 m -6.25,-22.198 c -1.086,-2.703 -2.279,-5.358 -3.578,-7.949 0.444,0.03 0.946,0.011 1.498,-0.042 1.331,2.653 2.544,5.368 3.643,8.135 -0.573,-0.008 -1.099,-0.052 -1.563,-0.144 m -10.652,-19.889 c -1.761,-2.547 -3.639,-5.015 -5.636,-7.393 0.349,-0.144 0.754,-0.329 1.215,-0.547 2.046,2.446 3.969,4.984 5.773,7.599 -0.507,0.149 -0.955,0.269 -1.352,0.341 m -14.932,-17.063 c -2.478,-2.256 -5.075,-4.402 -7.782,-6.422 0.169,-0.322 0.407,-0.674 0.713,-1.055 2.793,2.088 5.476,4.303 8.029,6.635 -0.374,0.318 -0.698,0.593 -0.96,0.842 m -18.781,-13.617 c -3.171,-1.811 -6.447,-3.472 -9.807,-4.976 -0.107,-0.453 -0.127,-0.972 -0.071,-1.525 3.498,1.571 6.905,3.295 10.2,5.176 -0.178,0.479 -0.292,0.923 -0.322,1.325 m -21.801,-9.559 c -3.753,-1.204 -7.569,-2.225 -11.426,-3.055 -0.455,-0.55 -0.849,-1.185 -1.146,-1.882 4.048,0.877 8.048,1.944 11.977,3.204 0.115,0.633 0.317,1.221 0.595,1.733 m -23.537,-5.041 c -4.105,-0.467 -8.214,-0.718 -12.297,-0.77 -0.891,-0.593 -1.733,-1.278 -2.501,-2.051 4.33,0.06 8.676,0.336 13.01,0.826 0.524,0.747 1.127,1.412 1.788,1.995 m -23.571,-0.381 c -4.128,0.346 -8.184,0.902 -12.138,1.665 -1.38,-0.555 -2.731,-1.204 -4.04,-1.947 4.23,-0.815 8.566,-1.396 12.971,-1.752 1.018,0.769 2.093,1.451 3.207,2.034 m -21.685,3.986 c -3.772,1.117 -7.388,2.428 -10.797,3.941 -1.885,-0.414 -3.762,-0.932 -5.623,-1.539 3.699,-1.617 7.605,-3.016 11.673,-4.207 1.548,0.71 3.139,1.305 4.747,1.805 m -17.966,7.573 c -3.037,1.761 -5.831,3.685 -8.328,5.757 -2.348,-0.18 -4.711,-0.458 -7.076,-0.852 2.766,-2.218 5.825,-4.298 9.147,-6.188 2.078,0.529 4.169,0.951 6.257,1.283 m -12.815,10.001 c -2.004,2.19 -3.713,4.477 -4.995,6.855 -2.716,0.112 -5.468,0.129 -8.246,0.069 1.508,-2.571 3.407,-5.071 5.662,-7.433 2.543,0.264 5.071,0.438 7.579,0.509 m -6.864,11.07 c -0.803,2.363 -1.214,4.776 -1.191,7.117 -2.967,0.451 -5.981,0.832 -9.036,1.117 0.114,-2.577 0.648,-5.218 1.643,-7.79 2.899,-0.062 5.76,-0.213 8.584,-0.444 m -0.803,10.805 c 0.481,2.309 1.391,4.54 2.659,6.578 -3.08,0.807 -6.227,1.525 -9.424,2.192 -1.234,-2.272 -2.084,-4.743 -2.452,-7.284 3.126,-0.403 6.196,-0.918 9.217,-1.486 m 20.321,362.725 c 2.117,-2.75 4.222,-5.457 6.275,-8.148 -0.269,2.562 -0.399,5.127 -0.311,7.679 -2.087,2.796 -4.204,5.621 -6.352,8.485 -0.079,-2.666 0.079,-5.347 0.388,-8.016 m 45.459,-60.157 c 1.892,-2.571 3.753,-5.12 5.588,-7.641 -0.103,1.871 -0.09,3.735 0.095,5.578 -1.846,2.597 -3.729,5.22 -5.629,7.875 -0.17,-1.921 -0.187,-3.865 -0.054,-5.812 m 33.908,-47.765 c 1.692,-2.495 3.37,-4.957 5.002,-7.411 -0.016,1.452 0.084,2.894 0.312,4.31 -1.652,2.502 -3.33,5.031 -5.031,7.585 -0.211,-1.476 -0.307,-2.975 -0.283,-4.484 m 25.982,-40.151 c 1.504,-2.472 2.977,-4.926 4.424,-7.356 0.045,1.176 0.203,2.339 0.451,3.477 -1.456,2.474 -2.937,4.975 -4.447,7.495 -0.253,-1.183 -0.392,-2.396 -0.428,-3.616 m 19.963,-35.148 c 1.301,-2.491 2.566,-4.969 3.802,-7.429 0.097,0.98 0.281,1.947 0.57,2.878 -1.244,2.497 -2.515,5.015 -3.827,7.546 -0.279,-0.971 -0.453,-1.976 -0.545,-2.995 m 14.99,-31.681 c 1.069,-2.535 2.087,-5.063 3.072,-7.569 0.142,0.827 0.364,1.632 0.683,2.406 -0.997,2.543 -2.023,5.105 -3.098,7.677 -0.306,-0.812 -0.526,-1.652 -0.657,-2.514 m 10.564,-29.119 c 0.784,-2.597 1.512,-5.181 2.194,-7.748 0.183,0.69 0.443,1.362 0.782,1.994 -0.694,2.604 -1.434,5.225 -2.22,7.855 -0.328,-0.67 -0.58,-1.376 -0.756,-2.101 m 6.379,-27.086 c 0.438,-2.652 0.812,-5.292 1.129,-7.911 0.21,0.569 0.5,1.113 0.865,1.615 -0.317,2.657 -0.709,5.329 -1.15,8.02 -0.357,-0.539 -0.638,-1.118 -0.844,-1.724 m 2.263,-25.286 c 0.016,-2.689 -0.037,-5.357 -0.161,-7.999 0.223,0.444 0.53,0.859 0.901,1.226 0.134,2.688 0.185,5.399 0.159,8.13 -0.371,-0.414 -0.679,-0.871 -0.899,-1.357 m -1.894,-23.492 c -0.478,-2.684 -1.046,-5.337 -1.7,-7.951 0.214,0.323 0.517,0.601 0.876,0.829 0.667,2.658 1.242,5.358 1.722,8.092 -0.368,-0.278 -0.675,-0.607 -0.898,-0.97 m -6.103,-21.513 c -1.048,-2.612 -2.205,-5.175 -3.468,-7.676 0.172,0.188 0.432,0.32 0.736,0.401 1.291,2.557 2.467,5.171 3.536,7.841 -0.33,-0.137 -0.609,-0.329 -0.804,-0.566 m -10.286,-19.165 c -1.688,-2.446 -3.491,-4.818 -5.406,-7.092 0,0 0.246,0.021 0.445,-0.039 1.962,2.334 3.81,4.762 5.543,7.268 -0.248,0.002 -0.454,-0.036 -0.582,-0.137 M 463.8,213.59 c -2.355,-2.152 -4.82,-4.189 -7.381,-6.113 -0.099,-0.093 -0.113,-0.275 -0.065,-0.469 2.646,1.979 5.194,4.079 7.622,6.291 -0.116,0.134 -0.176,0.291 -0.176,0.291 m -17.748,-12.933 c -2.976,-1.712 -6.044,-3.277 -9.187,-4.697 -0.337,-0.206 -0.623,-0.499 -0.818,-0.851 3.272,1.474 6.467,3.091 9.56,4.858 0.069,0.286 0.228,0.528 0.445,0.69 m -20.351,-9.012 c -3.473,-1.13 -7.001,-2.09 -10.56,-2.868 -0.663,-0.283 -1.28,-0.657 -1.831,-1.107 3.738,0.81 7.436,1.804 11.078,2.972 0.371,0.409 0.82,0.746 1.313,1.003 m -21.679,-4.738 c -3.749,-0.436 -7.493,-0.678 -11.207,-0.743 -1.062,-0.297 -2.092,-0.688 -3.067,-1.175 3.933,0.053 7.894,0.299 11.853,0.752 0.753,0.48 1.569,0.87 2.421,1.166 m -21.404,-0.419 c -3.719,0.292 -7.359,0.782 -10.891,1.469 -1.498,-0.243 -2.985,-0.574 -4.44,-1.006 3.78,-0.73 7.666,-1.272 11.63,-1.591 1.2,0.463 2.437,0.842 3.701,1.128 m -19.385,3.53 c -3.337,0.988 -6.52,2.155 -9.512,3.494 -1.938,-0.093 -3.879,-0.286 -5.814,-0.571 3.24,-1.439 6.67,-2.709 10.267,-3.767 1.672,0.377 3.36,0.655 5.059,0.844 m -15.757,6.697 c -2.632,1.537 -5.031,3.229 -7.147,5.053 -2.33,0.122 -4.681,0.175 -7.047,0.11 2.338,-1.977 4.969,-3.804 7.839,-5.475 2.123,0.203 4.244,0.296 6.355,0.312 m -10.919,8.759 c -1.675,1.893 -3.036,3.901 -4.052,5.949 -2.631,0.416 -5.305,0.73 -8.01,0.973 1.187,-2.237 2.744,-4.411 4.6,-6.489 2.511,-0.043 5.002,-0.205 7.462,-0.433 m -5.451,9.581 c -0.543,2.039 -0.781,4.101 -0.58,6.086 -2.826,0.713 -5.703,1.374 -8.633,1.934 -0.08,-2.196 0.217,-4.474 0.932,-6.699 2.799,-0.356 5.565,-0.794 8.281,-1.321 m 0.041,9.206 c 0.615,1.955 1.608,3.82 2.915,5.499 -2.909,1.036 -5.878,2.007 -8.907,2.913 -1.291,-1.891 -2.248,-3.972 -2.773,-6.14 2.976,-0.676 5.902,-1.434 8.765,-2.272 m 8.53,352.999 c 2.058,-2.568 4.085,-5.108 6.092,-7.618 -0.802,2.643 -1.471,5.296 -1.957,7.959 -2.041,2.618 -4.114,5.266 -6.213,7.945 0.538,-2.771 1.24,-5.534 2.078,-8.286 m 44.296,-56.68 c 1.843,-2.449 3.679,-4.866 5.469,-7.268 -0.53,1.97 -0.948,3.942 -1.216,5.907 -1.828,2.472 -3.669,4.978 -5.552,7.499 0.306,-2.041 0.734,-4.093 1.299,-6.138 m 33.255,-45.659 c 1.664,-2.398 3.299,-4.778 4.917,-7.131 -0.373,1.557 -0.647,3.11 -0.791,4.65 -1.631,2.412 -3.287,4.848 -4.974,7.305 0.174,-1.599 0.457,-3.209 0.848,-4.824 m 25.552,-38.759 c 1.479,-2.393 2.928,-4.771 4.352,-7.132 -0.262,1.283 -0.439,2.56 -0.503,3.818 -1.439,2.406 -2.909,4.83 -4.403,7.273 0.084,-1.307 0.277,-2.626 0.554,-3.959 m 19.635,-34.148 c 1.282,-2.428 2.521,-4.842 3.738,-7.239 -0.18,1.087 -0.279,2.163 -0.286,3.219 -1.232,2.434 -2.481,4.892 -3.782,7.355 0.027,-1.095 0.14,-2.208 0.33,-3.335 m 14.724,-30.909 c 1.051,-2.477 2.046,-4.947 3.013,-7.399 -0.12,0.934 -0.154,1.856 -0.113,2.75 -0.979,2.487 -1.99,4.993 -3.051,7.506 -0.03,-0.932 0.022,-1.89 0.151,-2.857 m 10.341,-28.476 c 0.769,-2.54 1.477,-5.068 2.145,-7.579 -0.064,0.803 -0.061,1.591 0.027,2.349 -0.675,2.55 -1.401,5.112 -2.174,7.69 -0.088,-0.798 -0.071,-1.622 0.002,-2.46 m 6.207,-26.502 c 0.42,-2.595 0.786,-5.173 1.09,-7.735 -0.032,0.685 0.013,1.353 0.135,1.99 -0.315,2.597 -0.684,5.213 -1.114,7.842 -0.113,-0.673 -0.15,-1.375 -0.111,-2.097 m 2.158,-24.719 c 0.012,-2.625 -0.046,-5.228 -0.179,-7.811 -0.013,0.573 0.047,1.124 0.185,1.633 0.135,2.619 0.195,5.264 0.171,7.93 -0.137,-0.556 -0.193,-1.143 -0.177,-1.752 m -1.716,-21.52 c -0.473,-2.656 -1.039,-5.283 -1.69,-7.867 -0.13,-0.382 -0.178,-0.816 -0.161,-1.265 0.644,2.543 1.201,5.124 1.668,7.739 -0.01,0.492 0.041,0.968 0.183,1.393 m -6.048,-21.276 c -1.039,-2.584 -2.179,-5.116 -3.427,-7.583 -0.083,-0.258 -0.083,-0.562 -0.021,-0.887 1.22,2.421 2.343,4.905 3.36,7.44 -0.043,0.373 -0.021,0.726 0.088,1.03 m -10.15,-18.929 c -1.664,-2.407 -3.438,-4.743 -5.318,-6.988 0.019,-0.136 0.126,-0.301 0.273,-0.507 1.831,2.197 3.559,4.479 5.18,6.839 -0.107,0.251 -0.166,0.477 -0.135,0.656 m -14.022,-16.089 c -2.307,-2.116 -4.724,-4.122 -7.234,-6.013 0.21,0.019 0.468,-0.043 0.763,-0.147 2.426,1.839 4.762,3.799 7,5.863 -0.219,0.146 -0.393,0.254 -0.529,0.297 m -17.374,-12.719 c -2.909,-1.679 -5.904,-3.218 -8.968,-4.611 0.443,0.128 0.941,0.171 1.471,0.147 2.943,1.354 5.822,2.854 8.617,4.488 -0.412,0.06 -0.796,0.063 -1.12,-0.024 m -19.842,-8.85 c -3.379,-1.104 -6.807,-2.045 -10.261,-2.815 0.761,0.191 1.569,0.299 2.402,0.32 3.291,0.754 6.562,1.672 9.792,2.753 -0.681,-0.003 -1.331,-0.089 -1.933,-0.258 m -18.104,-4.312 c -3.44,-0.432 -6.866,-0.694 -10.26,-0.775 -1.189,-0.015 -2.368,-0.117 -3.513,-0.32 3.588,0.069 7.207,0.319 10.835,0.749 0.946,0.209 1.931,0.318 2.938,0.346 m -19.528,-0.565 c -3.365,0.235 -6.649,0.656 -9.831,1.242 -1.58,0.06 -3.158,0.025 -4.721,-0.1 3.394,-0.65 6.896,-1.108 10.474,-1.386 1.34,0.169 2.702,0.255 4.078,0.244 m -17.437,3.03 c -2.972,0.862 -5.797,1.874 -8.441,3.046 -1.958,0.202 -3.929,0.325 -5.905,0.351 2.856,-1.272 5.896,-2.381 9.087,-3.326 1.751,0.072 3.507,0.054 5.259,-0.071 m -13.925,5.843 c -2.289,1.345 -4.36,2.821 -6.187,4.397 -2.284,0.429 -4.601,0.77 -6.939,1.009 2.004,-1.726 4.273,-3.333 6.763,-4.804 2.136,-0.11 4.259,-0.312 6.363,-0.602 m -9.387,7.612 c -1.383,1.647 -2.526,3.361 -3.309,5.127 -2.533,0.683 -5.109,1.288 -7.727,1.815 0.923,-1.939 2.194,-3.833 3.752,-5.632 2.459,-0.35 4.891,-0.785 7.284,-1.31 m -4.348,8.24 c -0.374,1.735 -0.43,3.499 -0.121,5.163 -2.682,0.971 -5.42,1.869 -8.211,2.697 -0.238,-1.859 -0.104,-3.81 0.39,-5.726 2.692,-0.639 5.344,-1.344 7.942,-2.134 m 0.66,7.784 c 0.687,1.647 1.737,3.193 3.063,4.544 -2.734,1.25 -5.53,2.454 -8.385,3.587 -1.321,-1.551 -2.326,-3.298 -2.983,-5.129 2.83,-0.92 5.596,-1.936 8.305,-3.002 m 0.207,344.36 c 1.971,-2.403 3.922,-4.779 5.85,-7.125 -1.255,2.721 -2.403,5.454 -3.397,8.207 -1.972,2.457 -3.973,4.936 -6.011,7.439 1.056,-2.855 2.238,-5.701 3.558,-8.521 m 42.742,-53.419 c 1.795,-2.325 3.557,-4.634 5.307,-6.913 -0.914,2.071 -1.722,4.149 -2.415,6.226 -1.774,2.362 -3.577,4.743 -5.417,7.14 0.728,-2.154 1.58,-4.305 2.525,-6.453 m 32.322,-43.651 c 1.626,-2.301 3.217,-4.591 4.791,-6.859 -0.689,1.672 -1.303,3.335 -1.808,4.995 -1.591,2.329 -3.22,4.671 -4.875,7.033 0.53,-1.719 1.168,-3.442 1.892,-5.169 m 24.924,-37.415 c 1.452,-2.319 2.863,-4.628 4.253,-6.916 -0.55,1.402 -1.021,2.792 -1.404,4.173 -1.406,2.338 -2.853,4.684 -4.317,7.054 0.401,-1.427 0.891,-2.867 1.468,-4.311 M 464,396.344 c 1.251,-2.364 2.462,-4.721 3.647,-7.056 -0.44,1.207 -0.813,2.4 -1.101,3.58 -1.2,2.378 -2.439,4.768 -3.708,7.173 0.305,-1.222 0.7,-2.454 1.162,-3.697 m 14.366,-30.173 c 1.018,-2.424 1.999,-4.833 2.933,-7.232 -0.361,1.055 -0.654,2.096 -0.867,3.123 -0.962,2.432 -1.956,4.877 -2.989,7.338 0.232,-1.063 0.537,-2.139 0.923,-3.229 m 10.057,-27.866 c 0.738,-2.489 1.435,-4.963 2.075,-7.425 -0.296,0.932 -0.523,1.846 -0.688,2.74 -0.656,2.493 -1.364,5.004 -2.12,7.526 0.167,-0.929 0.419,-1.876 0.733,-2.841 m 5.403,-23.466 c 0.423,-2.572 0.771,-5.132 1.071,-7.676 0.115,-0.776 0.307,-1.577 0.561,-2.399 -0.283,2.513 -0.64,5.036 -1.041,7.579 -0.26,0.852 -0.46,1.686 -0.591,2.496 m 2.112,-24.525 c 0.009,-2.606 -0.053,-5.192 -0.186,-7.751 0.095,-0.665 0.267,-1.356 0.491,-2.069 0.145,2.523 0.211,5.071 0.2,7.642 -0.229,0.75 -0.406,1.476 -0.505,2.178 m -1.899,-22.729 c -0.471,-2.592 -1.024,-5.149 -1.658,-7.671 0.099,-0.552 0.281,-1.132 0.51,-1.74 0.632,2.482 1.184,5.004 1.639,7.556 -0.223,0.645 -0.394,1.264 -0.491,1.855 m -5.906,-20.719 c -1.007,-2.513 -2.119,-4.968 -3.32,-7.366 0.153,-0.44 0.376,-0.909 0.64,-1.412 1.179,2.357 2.268,4.771 3.257,7.241 -0.251,0.543 -0.446,1.054 -0.577,1.537 m -9.805,-18.361 c -1.596,-2.333 -3.302,-4.588 -5.103,-6.759 0.261,-0.326 0.569,-0.684 0.919,-1.089 1.75,2.13 3.411,4.344 4.972,6.633 -0.311,0.44 -0.578,0.843 -0.788,1.215 m -13.412,-15.544 c -2.198,-2.035 -4.491,-3.973 -6.874,-5.79 0.423,-0.21 0.883,-0.476 1.374,-0.797 2.304,1.787 4.523,3.68 6.653,5.673 -0.421,0.353 -0.805,0.657 -1.153,0.914 m -16.458,-12.238 c -2.741,-1.61 -5.554,-3.092 -8.433,-4.431 0.649,-0.116 1.325,-0.312 2.027,-0.569 2.765,1.312 5.472,2.763 8.113,4.34 -0.597,0.287 -1.17,0.509 -1.707,0.66 m -18.598,-8.506 c -3.147,-1.066 -6.334,-1.974 -9.541,-2.724 0.936,-0.076 1.894,-0.235 2.87,-0.466 3.06,0.743 6.104,1.642 9.117,2.694 -0.84,0.239 -1.656,0.409 -2.446,0.496 m -19.5,-4.538 c -3.34,-0.44 -6.667,-0.702 -9.953,-0.796 1.273,-0.083 2.559,-0.265 3.854,-0.523 3.115,0.119 6.27,0.405 9.441,0.849 -1.127,0.239 -2.245,0.397 -3.342,0.47 m -18.927,-0.633 c -3.25,0.216 -6.425,0.6 -9.494,1.154 1.638,-0.168 3.277,-0.427 4.904,-0.773 2.886,-0.49 5.874,-0.818 8.935,-0.998 -1.447,0.293 -2.9,0.497 -4.345,0.617 m -11.455,1.89 c -2.669,0.73 -5.199,1.604 -7.555,2.614 -1.952,0.497 -3.927,0.905 -5.915,1.227 2.537,-1.106 5.251,-2.072 8.106,-2.889 1.797,-0.226 3.588,-0.545 5.364,-0.952 m -12.419,5.027 c -2.017,1.153 -3.838,2.422 -5.413,3.796 -2.223,0.707 -4.481,1.326 -6.779,1.852 1.737,-1.496 3.71,-2.896 5.894,-4.177 2.125,-0.403 4.227,-0.895 6.298,-1.471 m -8.16,6.561 c -1.171,1.409 -2.101,2.884 -2.727,4.388 -2.423,0.948 -4.895,1.812 -7.413,2.605 0.718,-1.67 1.772,-3.307 3.086,-4.854 2.389,-0.634 4.747,-1.339 7.054,-2.139 m -3.496,7.032 c -0.244,1.472 -0.179,2.962 0.209,4.344 -2.533,1.211 -5.123,2.356 -7.774,3.417 -0.323,-1.566 -0.352,-3.227 -0.012,-4.863 2.577,-0.892 5.103,-1.859 7.577,-2.898 m 1.095,6.519 c 0.755,1.362 1.82,2.617 3.125,3.696 -2.553,1.476 -5.183,2.88 -7.868,4.233 -1.315,-1.258 -2.39,-2.685 -3.095,-4.231 2.674,-1.163 5.288,-2.396 7.838,-3.698 m -5.148,336.738 c 1.878,-2.25 3.743,-4.468 5.579,-6.673 -1.647,2.792 -3.209,5.597 -4.644,8.425 -1.898,2.298 -3.817,4.623 -5.763,6.969 1.493,-2.929 3.112,-5.834 4.828,-8.721 m 40.933,-50.394 c 1.72,-2.215 3.427,-4.404 5.106,-6.578 -1.245,2.174 -2.415,4.349 -3.478,6.532 -1.724,2.245 -3.468,4.515 -5.243,6.798 1.11,-2.254 2.316,-4.505 3.615,-6.752 m 31.193,-41.751 c 1.575,-2.214 3.11,-4.423 4.639,-6.603 -0.997,1.783 -1.913,3.561 -2.742,5.338 -1.55,2.242 -3.132,4.496 -4.742,6.771 0.86,-1.832 1.816,-3.666 2.845,-5.506 M 448.13,422.53 c 1.413,-2.244 2.782,-4.485 4.126,-6.712 -0.816,1.524 -1.567,3.032 -2.235,4.536 -1.372,2.27 -2.785,4.546 -4.211,6.845 0.697,-1.549 1.476,-3.102 2.32,-4.669 m 18.615,-32.275 c 1.211,-2.307 2.401,-4.597 3.541,-6.882 -0.683,1.333 -1.314,2.65 -1.866,3.955 -1.166,2.322 -2.377,4.652 -3.611,6.998 0.576,-1.344 1.224,-2.703 1.936,-4.071 m 12.291,-25.859 c 1.003,-2.406 1.969,-4.801 2.905,-7.183 0.457,-1.154 0.992,-2.327 1.58,-3.514 -0.904,2.349 -1.855,4.711 -2.838,7.082 -0.612,1.22 -1.165,2.425 -1.647,3.615 m 9.946,-27.669 c 0.737,-2.472 1.415,-4.933 2.053,-7.379 0.387,-1.033 0.851,-2.08 1.365,-3.152 -0.613,2.417 -1.279,4.846 -1.998,7.285 -0.533,1.1 -1.006,2.18 -1.42,3.246 m 5.919,-25.789 c 0.403,-2.525 0.737,-5.037 1.018,-7.531 0.346,-0.923 0.75,-1.867 1.211,-2.833 -0.271,2.464 -0.59,4.943 -0.981,7.435 -0.474,0.995 -0.893,1.972 -1.248,2.929 m 1.976,-24.047 c 0,-2.553 -0.068,-5.085 -0.208,-7.592 0.317,-0.82 0.699,-1.663 1.129,-2.536 0.141,2.475 0.225,4.974 0.227,7.496 -0.435,0.899 -0.826,1.78 -1.148,2.632 m -1.926,-22.251 c -0.462,-2.534 -1.007,-5.036 -1.632,-7.499 0.323,-0.72 0.699,-1.471 1.127,-2.248 0.619,2.431 1.159,4.898 1.621,7.399 -0.422,0.811 -0.796,1.591 -1.116,2.348 m -5.781,-20.244 c -0.983,-2.446 -2.057,-4.843 -3.225,-7.182 0.368,-0.62 0.782,-1.275 1.237,-1.962 1.144,2.305 2.203,4.664 3.171,7.075 -0.438,0.725 -0.835,1.413 -1.183,2.069 m -9.489,-17.886 c -1.54,-2.268 -3.176,-4.463 -4.907,-6.572 0.455,-0.523 0.958,-1.085 1.489,-1.695 1.682,2.079 3.284,4.236 4.787,6.469 -0.495,0.638 -0.953,1.239 -1.369,1.798 M 466.82,211.409 c -2.097,-1.977 -4.283,-3.851 -6.546,-5.616 0.606,-0.43 1.24,-0.919 1.899,-1.461 2.196,1.738 4.317,3.579 6.35,5.522 -0.599,0.567 -1.168,1.086 -1.703,1.555 M 451.188,199.54 c -2.592,-1.562 -5.246,-3 -7.958,-4.302 0.81,-0.368 1.641,-0.801 2.487,-1.299 2.61,1.288 5.17,2.704 7.669,4.241 -0.754,0.516 -1.49,0.969 -2.198,1.36 m -17.5,-8.274 c -2.944,-1.045 -5.919,-1.941 -8.908,-2.683 1.066,-0.34 2.148,-0.756 3.232,-1.246 2.863,0.748 5.713,1.637 8.533,2.675 -0.966,0.488 -1.917,0.915 -2.857,1.254 m -18.163,-4.511 c -3.087,-0.448 -6.159,-0.742 -9.19,-0.878 1.365,-0.365 2.732,-0.814 4.089,-1.346 2.886,0.166 5.809,0.482 8.751,0.95 -1.22,0.499 -2.437,0.935 -3.65,1.274 m -17.437,-0.861 c -2.971,0.145 -5.867,0.451 -8.664,0.911 1.677,-0.453 3.345,-0.997 4.995,-1.616 2.641,-0.396 5.378,-0.644 8.188,-0.747 -1.498,0.561 -3.007,1.051 -4.519,1.452 m -15.309,2.329 c -2.576,0.694 -5.021,1.51 -7.296,2.474 1.976,-0.608 3.93,-1.29 5.847,-2.063 2.13,-0.859 4.416,-1.601 6.835,-2.207 -1.775,0.681 -3.57,1.287 -5.386,1.796 m -5.809,2.466 c -1.795,0.982 -3.407,2.065 -4.799,3.239 -2.145,0.957 -4.329,1.852 -6.556,2.657 1.512,-1.299 3.256,-2.503 5.189,-3.603 2.089,-0.688 4.147,-1.445 6.166,-2.293 m -7.186,5.596 c -1.013,1.189 -1.791,2.449 -2.291,3.724 -2.297,1.197 -4.653,2.306 -7.057,3.352 0.563,-1.428 1.454,-2.822 2.566,-4.154 2.309,-0.889 4.568,-1.87 6.782,-2.922 m -2.856,5.949 c -0.157,1.233 0.007,2.478 0.429,3.613 -2.372,1.441 -4.813,2.804 -7.319,4.098 -0.39,-1.297 -0.52,-2.7 -0.295,-4.087 2.449,-1.139 4.846,-2.346 7.185,-3.624 m -5.981,9.745 c 0.759,1.282 1.84,2.439 3.135,3.432 2.515,-1.556 4.963,-3.172 7.342,-4.843 -1.269,-0.841 -2.342,-1.831 -3.123,-2.944 -2.377,1.522 -4.835,2.975 -7.354,4.355"
                   style="fill:url(#radialGradient1139);stroke:none"
                   id="path1141"
                   inkscape:connector-curvature="0" /></g></g></g></g></g></g></g></svg>