<?xml version="1.0" encoding="UTF-8" standalone="no"?>
<!-- Created with Inkscape (http://www.inkscape.org/) -->

<svg
   version="1.1"
   id="svg31113"
   xml:space="preserve"
   width="800"
   height="800"
   viewBox="0 0 800 800"
   sodipodi:docname="1611320960arc-shape-black-lines.svg"
   inkscape:version="1.1.1 (3bf5ae0d25, 2021-09-20)"
   xmlns:inkscape="http://www.inkscape.org/namespaces/inkscape"
   xmlns:sodipodi="http://sodipodi.sourceforge.net/DTD/sodipodi-0.dtd"
   xmlns="http://www.w3.org/2000/svg"
   xmlns:svg="http://www.w3.org/2000/svg"
   xmlns:rdf="http://www.w3.org/1999/02/22-rdf-syntax-ns#"
   xmlns:cc="http://creativecommons.org/ns#"
   xmlns:dc="http://purl.org/dc/elements/1.1/"><metadata
     id="metadata31119"><rdf:RDF><cc:Work
         rdf:about=""><dc:format>image/svg+xml</dc:format><dc:type
           rdf:resource="http://purl.org/dc/dcmitype/StillImage" /></cc:Work></rdf:RDF></metadata><defs
     id="defs31117"><clipPath
       clipPathUnits="userSpaceOnUse"
       id="clipPath31129"><path
         d="M 0,600 H 600 V 0 H 0 Z"
         id="path31127"
         inkscape:connector-curvature="0" /></clipPath></defs><sodipodi:namedview
     pagecolor="#ffffff"
     bordercolor="#666666"
     borderopacity="1"
     objecttolerance="10"
     gridtolerance="10"
     guidetolerance="10"
     inkscape:pageopacity="0"
     inkscape:pageshadow="2"
     inkscape:window-width="1920"
     inkscape:window-height="991"
     id="namedview31115"
     showgrid="false"
     inkscape:zoom="0.78512539"
     inkscape:cx="485.90965"
     inkscape:cy="404.394"
     inkscape:window-x="2391"
     inkscape:window-y="-9"
     inkscape:window-maximized="1"
     inkscape:current-layer="g31121"
     inkscape:pagecheckerboard="0" /><g
     id="g31121"
     inkscape:groupmode="layer"
     inkscape:label="arc-shape-publicdomainvectors.org"
     transform="matrix(1.3333333,0,0,-1.3333333,0,800)"><g
       id="g31123"
       transform="matrix(1.1470737,0,0,1.1066284,-57.314688,17.853602)"><g
         id="g31125"
         clip-path="url(#clipPath31129)"><path
           d="M 226.4899,400.04482 C 143.13795,397.75146 65.005885,321.01501 54.37463,230.99566 43.863789,140.95792 101.74799,45.284911 181.8916,20.251595 c 80.17173,-24.9154404 175.79504,22.92924 210.63423,105.390075 34.73384,82.50927 5.72946,192.63171 -63.88881,242.57697"
           style="fill:none;stroke:#231f20;stroke-width:5.62876;stroke-linecap:butt;stroke-linejoin:miter;stroke-miterlimit:4;stroke-dasharray:none;stroke-opacity:1"
           id="path31131"
           inkscape:connector-curvature="0" /><path
           d="M 411.09055,275.77202 C 436.4697,197.42533 412.79393,101.77354 354.69074,47.915041 296.52898,-5.8696687 205.99293,-15.949416 139.03538,23.910069 72.117358,63.847033 31.151527,152.30748 41.437674,234.62387 51.825498,316.92575 113.09431,390.17217 187.40255,409.09543"
           style="fill:none;stroke:#231f20;stroke-width:5.62876;stroke-linecap:butt;stroke-linejoin:miter;stroke-miterlimit:4;stroke-dasharray:none;stroke-opacity:1"
           id="path31133"
           inkscape:connector-curvature="0" /><path
           d="M 432.11491,163.88114 C 417.47216,82.044383 356.06747,11.083401 281.90171,-9.7238161 207.70899,-30.434738 122.4822,-0.51678905 73.390413,63.478049 24.363311,127.53469 12.621925,224.17678 44.656839,299.90975 76.770938,375.60025 151.91819,428.62395 228.50322,429.6178"
           style="fill:none;stroke:#231f20;stroke-width:5.62876;stroke-linecap:butt;stroke-linejoin:miter;stroke-miterlimit:4;stroke-dasharray:none;stroke-opacity:1"
           id="path31135"
           inkscape:connector-curvature="0" /><path
           d="M 225.46905,445.35591 C 140.35579,443.03771 57.863516,380.28369 26.595692,294.07852 -4.5818139,207.83347 16.399934,100.69171 77.161063,35.770313 138.0016,-29.066286 236.82258,-49.758711 315.41297,-14.104974 393.96349,21.645825 449.95057,112.67831 450.38392,205.36166"
           style="fill:none;stroke:#231f20;stroke-width:5.62876;stroke-linecap:butt;stroke-linejoin:miter;stroke-miterlimit:4;stroke-dasharray:none;stroke-opacity:1"
           id="path31137"
           inkscape:connector-curvature="0" /><path
           d="M 172.53443,453.96586 C 78.461551,427.64118 3.4602835,329.63705 -3.3321376,224.16238 -10.013629,118.67918 51.809348,10.323042 141.6286,-29.921478 c 89.86526,-40.128831 203.80975,-10.38205 267.19108,69.738036 63.28714,80.209682 73.24629,207.293142 23.35748,298.018002"
           style="fill:none;stroke:#231f20;stroke-width:5.62876;stroke-linecap:butt;stroke-linejoin:miter;stroke-miterlimit:4;stroke-dasharray:none;stroke-opacity:1"
           id="path31139"
           inkscape:connector-curvature="0" /><path
           d="M 139.48741,460.55979 C 52.801172,423.57663 -11.883691,328.49164 -19.096013,227.44096 -26.212781,126.38325 24.300477,21.619425 104.74597,-29.411605 c 80.49225,-50.939851 189.12552,-46.999027 266.32997,9.652983 77.14791,56.745251 121.14334,164.931872 107.87237,265.252282"
           style="fill:none;stroke:#231f20;stroke-width:5.62876;stroke-linecap:butt;stroke-linejoin:miter;stroke-miterlimit:4;stroke-dasharray:none;stroke-opacity:1"
           id="path31141"
           inkscape:connector-curvature="0" /><path
           d="M 490.9097,274.24981 C 515.84913,160.61407 469.36236,30.560247 380.44011,-34.860186 291.44,-100.15558 163.25008,-98.418213 75.77264,-30.728964 -11.62382,37.084661 -55.125289,168.36014 -27.587688,281.28186 0.0689897,394.16842 97.733894,484.57352 204.53288,496.13637"
           style="fill:none;stroke:#231f20;stroke-width:5.62876;stroke-linecap:butt;stroke-linejoin:miter;stroke-miterlimit:4;stroke-dasharray:none;stroke-opacity:1"
           id="path31143"
           inkscape:connector-curvature="0" /><path
           d="M 515.47083,190.17474 C 510.20472,81.959494 447.63606,-22.201807 358.68821,-70.862209 269.68828,-119.41061 155.57529,-111.77818 72.726176,-51.702458 -10.071894,8.460363 -60.426842,120.19486 -53.46418,228.29595 c 7.05913,108.09236 71.346922,211.0075 161.08634,257.91056"
           style="fill:none;stroke:#231f20;stroke-width:5.62876;stroke-linecap:butt;stroke-linejoin:miter;stroke-miterlimit:4;stroke-dasharray:none;stroke-opacity:1"
           id="path31145"
           inkscape:connector-curvature="0" /><path
           d="M 505.48832,347.13977 C 550.16811,243.6527 540.32697,113.07599 480.75588,18.898919 421.08429,-75.203911 312.48625,-131.65569 207.74399,-123.02753 103.01224,-114.25649 3.5392207,-40.516642 -42.31727,62.356725 -88.080187,165.28082 -79.592586,295.97756 -21.003988,390.88187"
           style="fill:none;stroke:#231f20;stroke-width:5.62876;stroke-linecap:butt;stroke-linejoin:miter;stroke-miterlimit:4;stroke-dasharray:none;stroke-opacity:1"
           id="path31147"
           inkscape:connector-curvature="0" /><path
           d="M 553.65714,220.16677 C 557.82948,102.45706 502.58234,-17.194391 413.30861,-83.772522 323.9838,-150.26754 201.52544,-162.99806 102.23106,-116.16786 2.9881126,-69.204901 -72.107271,36.860098 -88.506241,153.30133 -104.80672,269.75331 -62.256956,395.39946 19.571783,472.48529"
           style="fill:none;stroke:#231f20;stroke-width:5.62876;stroke-linecap:butt;stroke-linejoin:miter;stroke-miterlimit:4;stroke-dasharray:none;stroke-opacity:1"
           id="path31149"
           inkscape:connector-curvature="0" /><path
           d="M 475.23866,469.45596 C 564.7583,370.78386 597.24097,212.89396 554.96424,82.071594 512.53228,-48.69107 396.28396,-149.52232 269.71193,-165.26608 143.12557,-180.88278 9.0277732,-111.08537 -59.307617,5.9568795 -127.51082,123.09044 -128.44434,284.87957 -61.599341,402.93674"
           style="fill:none;stroke:#231f20;stroke-width:5.62876;stroke-linecap:butt;stroke-linejoin:miter;stroke-miterlimit:4;stroke-dasharray:none;stroke-opacity:1"
           id="path31151"
           inkscape:connector-curvature="0" /></g></g></g></svg>
